# This file uses centimeters as units for non-parametric coordinates.

mtllib DirtMound_01.mtl
g default
v -1.726068 -0.290468 1.970439
v -1.362296 -0.121852 2.028003
v -1.113834 -0.121852 2.173905
v -0.749846 -0.121852 2.204759
v -0.270047 -0.121852 2.247792
v 0.095302 -0.121852 2.260431
v 0.461759 -0.121852 2.230934
v 0.948248 -0.121852 2.130521
v 1.199145 -0.121852 2.040444
v 1.570646 -0.121852 1.981702
v 1.944400 -0.290468 1.906645
v -1.667421 -0.121852 1.534516
v -1.486534 0.085497 1.756132
v -1.195292 0.178285 1.929158
v -0.817747 0.233725 2.052969
v -0.327125 0.239287 2.129524
v 0.106192 0.252035 2.150761
v 0.516430 0.239287 2.118097
v 1.024213 0.233725 2.029231
v 1.428484 0.178285 1.899309
v 1.756398 0.085497 1.728501
v 1.982973 -0.121852 1.520344
v -1.621861 -0.121852 1.112133
v -1.549854 0.178285 1.373280
v -1.306748 0.336024 1.590501
v -0.920638 0.409400 1.759081
v -0.410755 0.443931 1.858814
v 0.151900 0.461690 1.855990
v 0.660799 0.444124 1.836074
v 1.191631 0.409400 1.749207
v 1.610699 0.336024 1.583199
v 1.895138 0.178285 1.377685
v 2.011366 -0.121852 1.137131
v -1.705917 -0.121852 0.700961
v -1.575820 0.239382 0.884774
v -1.360248 0.408334 0.956778
v -0.968305 0.490265 1.055762
v -0.394574 0.517398 1.253914
v 0.204213 0.532987 1.278978
v 0.729653 0.516616 1.287269
v 1.319159 0.505810 1.239704
v 1.743410 0.409400 1.130583
v 1.990371 0.233725 0.956135
v 2.029436 -0.121852 0.756052
v -1.710181 -0.121852 0.364286
v -1.608421 0.276747 0.415684
v -1.416675 0.464441 0.485680
v -0.999046 0.546216 0.602434
v -0.391407 0.580071 0.698602
v 0.231692 0.591641 0.720979
v 0.768490 0.580071 0.734029
v 1.389021 0.568839 0.739015
v 1.852249 0.480666 0.635503
v 2.068039 0.263574 0.492324
v 2.151249 -0.121852 0.391689
v -1.693273 -0.121852 -0.097077
v -1.603519 0.260001 -0.079127
v -1.397036 0.449139 -0.062469
v -0.975990 0.516524 -0.045101
v -0.371771 0.533625 -0.023304
v 0.214425 0.542917 -0.004122
v 0.721989 0.536130 0.006049
v 1.355493 0.544937 0.016480
v 1.829845 0.461908 0.021237
v 2.063341 0.252055 0.014957
v 2.147794 -0.121852 -0.007079
v -1.714790 -0.121852 -0.488604
v -1.613749 0.239287 -0.540913
v -1.427084 0.442920 -0.556747
v -1.034239 0.527263 -0.621847
v -0.457594 0.562961 -0.669343
v 0.141562 0.553134 -0.671834
v 0.669137 0.538351 -0.664318
v 1.295772 0.515244 -0.663997
v 1.787971 0.420042 -0.562656
v 2.026553 0.239287 -0.446841
v 2.134034 -0.121852 -0.387466
v -1.747242 -0.121852 -0.878245
v -1.644574 0.233725 -1.075000
v -1.459738 0.409400 -1.189531
v -1.106108 0.510009 -1.312250
v -0.574326 0.537152 -1.485292
v 0.024800 0.536497 -1.507313
v 0.574803 0.513760 -1.393674
v 1.196860 0.481710 -1.330797
v 1.664007 0.385050 -1.163364
v 1.944122 0.229811 -0.970111
v 2.049431 -0.121852 -0.823967
v -1.810902 -0.121852 -1.268330
v -1.665365 0.178285 -1.513813
v -1.465864 0.336024 -1.719927
v -1.125660 0.409400 -1.881419
v -0.660275 0.443399 -1.983142
v -0.098318 0.461453 -2.007701
v 0.439849 0.420271 -1.949436
v 1.010498 0.386220 -1.818261
v 1.486600 0.308230 -1.627488
v 1.818608 0.174260 -1.401381
v 1.959920 -0.121852 -1.150641
v -1.902910 -0.121852 -1.661191
v -1.654366 0.085497 -1.870298
v -1.408886 0.178285 -2.036923
v -1.071456 0.233725 -2.158486
v -0.608308 0.239287 -2.233631
v -0.180320 0.252055 -2.255063
v 0.247858 0.239287 -2.211154
v 0.799863 0.230926 -2.105934
v 1.258873 0.174011 -1.956244
v 1.642677 0.084472 -1.764485
v 1.953927 -0.121852 -1.579368
v -1.903929 -0.290468 -2.059157
v -1.635633 -0.121852 -2.190978
v -1.302996 -0.121852 -2.263571
v -0.979819 -0.121852 -2.280476
v -0.550298 -0.121852 -2.367244
v -0.185416 -0.121852 -2.223975
v 0.192335 -0.121852 -2.319398
v 0.584096 -0.121852 -2.266534
v 1.164013 -0.121852 -2.220114
v 1.515956 -0.121852 -2.059160
v 1.854839 -0.290468 -1.931699
vt 0.000000 0.000000
vt 0.100000 0.000000
vt 0.200000 0.000000
vt 0.300000 0.000000
vt 0.400000 0.000000
vt 0.500000 0.000000
vt 0.600000 0.000000
vt 0.700000 0.000000
vt 0.800000 0.000000
vt 0.900000 0.000000
vt 1.000000 0.000000
vt 0.000000 0.100000
vt 0.100000 0.100000
vt 0.200000 0.100000
vt 0.300000 0.100000
vt 0.400000 0.100000
vt 0.500000 0.100000
vt 0.600000 0.100000
vt 0.700000 0.100000
vt 0.800000 0.100000
vt 0.900000 0.100000
vt 1.000000 0.100000
vt 0.000000 0.200000
vt 0.100000 0.200000
vt 0.200000 0.200000
vt 0.300000 0.200000
vt 0.400000 0.200000
vt 0.500000 0.200000
vt 0.600000 0.200000
vt 0.700000 0.200000
vt 0.800000 0.200000
vt 0.900000 0.200000
vt 1.000000 0.200000
vt 0.000000 0.300000
vt 0.100000 0.300000
vt 0.200000 0.300000
vt 0.300000 0.300000
vt 0.400000 0.300000
vt 0.500000 0.300000
vt 0.600000 0.300000
vt 0.700000 0.300000
vt 0.800000 0.300000
vt 0.900000 0.300000
vt 1.000000 0.300000
vt 0.000000 0.400000
vt 0.100000 0.400000
vt 0.200000 0.400000
vt 0.300000 0.400000
vt 0.400000 0.400000
vt 0.500000 0.400000
vt 0.600000 0.400000
vt 0.700000 0.400000
vt 0.800000 0.400000
vt 0.900000 0.400000
vt 1.000000 0.400000
vt 0.000000 0.500000
vt 0.100000 0.500000
vt 0.200000 0.500000
vt 0.300000 0.500000
vt 0.400000 0.500000
vt 0.500000 0.500000
vt 0.600000 0.500000
vt 0.700000 0.500000
vt 0.800000 0.500000
vt 0.900000 0.500000
vt 1.000000 0.500000
vt 0.000000 0.600000
vt 0.100000 0.600000
vt 0.200000 0.600000
vt 0.300000 0.600000
vt 0.400000 0.600000
vt 0.500000 0.600000
vt 0.600000 0.600000
vt 0.700000 0.600000
vt 0.800000 0.600000
vt 0.900000 0.600000
vt 1.000000 0.600000
vt 0.000000 0.700000
vt 0.100000 0.700000
vt 0.200000 0.700000
vt 0.300000 0.700000
vt 0.400000 0.700000
vt 0.500000 0.700000
vt 0.600000 0.700000
vt 0.700000 0.700000
vt 0.800000 0.700000
vt 0.900000 0.700000
vt 1.000000 0.700000
vt 0.000000 0.800000
vt 0.100000 0.800000
vt 0.200000 0.800000
vt 0.300000 0.800000
vt 0.400000 0.800000
vt 0.500000 0.800000
vt 0.600000 0.800000
vt 0.700000 0.800000
vt 0.800000 0.800000
vt 0.900000 0.800000
vt 1.000000 0.800000
vt 0.000000 0.900000
vt 0.100000 0.900000
vt 0.200000 0.900000
vt 0.300000 0.900000
vt 0.400000 0.900000
vt 0.500000 0.900000
vt 0.600000 0.900000
vt 0.700000 0.900000
vt 0.800000 0.900000
vt 0.900000 0.900000
vt 1.000000 0.900000
vt 0.000000 1.000000
vt 0.100000 1.000000
vt 0.200000 1.000000
vt 0.300000 1.000000
vt 0.400000 1.000000
vt 0.500000 1.000000
vt 0.600000 1.000000
vt 0.700000 1.000000
vt 0.800000 1.000000
vt 0.900000 1.000000
vt 1.000000 1.000000
vn -0.650733 0.643942 0.402351
vn -0.577899 0.579354 0.574789
vn -0.678600 0.617548 0.397663
vn -0.835303 0.509502 0.206584
vn -0.302060 0.486702 0.819684
vn -0.399565 0.646152 0.650257
vn -0.153874 0.384933 0.910027
vn -0.187577 0.616958 0.764315
vn -0.080810 0.312771 0.946385
vn -0.085303 0.581784 0.808858
vn 0.015715 0.288503 0.957350
vn 0.012766 0.588364 0.808496
vn 0.131664 0.266930 0.954680
vn 0.121824 0.548420 0.827281
vn 0.228094 0.232468 0.945479
vn 0.227136 0.537249 0.812264
vn 0.330224 0.246887 0.911043
vn 0.376169 0.544992 0.749320
vn 0.458664 0.475558 0.750647
vn 0.619744 0.554891 0.554990
vn 0.614104 0.567142 0.548841
vn 0.799366 0.466061 0.379212
vn -0.806589 0.571101 0.152505
vn -0.960760 0.251233 0.117569
vn -0.403296 0.880756 0.248236
vn -0.179740 0.945249 0.272394
vn -0.073023 0.953752 0.291591
vn 0.003072 0.955580 0.294717
vn 0.070648 0.942220 0.327461
vn 0.173265 0.918995 0.354158
vn 0.420321 0.825588 0.376477
vn 0.805942 0.518084 0.286438
vn 0.964802 0.196478 0.174793
vn -0.857857 0.498534 0.124679
vn -0.964136 0.252152 0.082834
vn -0.409500 0.901798 0.138095
vn -0.147972 0.981122 0.124514
vn -0.056580 0.991617 0.116164
vn -0.001546 0.993137 0.116947
vn 0.035852 0.990383 0.133627
vn 0.128461 0.976984 0.170297
vn 0.426636 0.876396 0.223411
vn 0.884931 0.412373 0.216441
vn 0.974164 0.085481 0.209038
vn -0.873268 0.486728 0.022335
vn -0.966823 0.255306 0.008457
vn -0.391608 0.919501 0.034063
vn -0.110351 0.993608 0.023775
vn -0.037618 0.999157 0.016436
vn -0.000403 0.999931 0.011727
vn 0.015403 0.999709 0.018554
vn 0.095593 0.994643 0.039339
vn 0.402188 0.913464 0.061873
vn 0.890555 0.445889 0.089969
vn 0.983529 0.158295 0.087255
vn -0.882403 0.470435 -0.007441
vn -0.969511 0.245046 0.000430
vn -0.374175 0.927239 -0.014860
vn -0.089030 0.995950 -0.012524
vn -0.022401 0.999606 -0.016940
vn 0.005140 0.999650 -0.025964
vn 0.012814 0.999369 -0.033139
vn 0.081069 0.995747 -0.043764
vn 0.360801 0.930803 -0.058552
vn 0.859738 0.508211 -0.050703
vn 0.971655 0.233494 -0.036976
vn -0.872720 0.487103 0.033021
vn -0.961575 0.270663 0.045992
vn -0.415648 0.909511 0.005220
vn -0.115477 0.993306 0.002965
vn -0.021982 0.999758 0.001057
vn 0.016926 0.999831 -0.007137
vn 0.030021 0.999238 -0.024935
vn 0.103875 0.993088 -0.054642
vn 0.361022 0.927521 -0.096788
vn 0.844850 0.520886 -0.122092
vn 0.963329 0.243833 -0.111990
vn -0.840435 0.541309 0.025584
vn -0.942951 0.326552 0.064861
vn -0.439865 0.896403 -0.054601
vn -0.152688 0.985493 -0.074100
vn -0.039909 0.995644 -0.084268
vn 0.028686 0.995646 -0.088694
vn 0.059682 0.993168 -0.100279
vn 0.139258 0.980592 -0.138011
vn 0.366497 0.912522 -0.181612
vn 0.815771 0.535359 -0.218881
vn 0.953696 0.222110 -0.202807
vn -0.776649 0.627796 -0.051856
vn -0.884595 0.463677 0.049954
vn -0.463993 0.853166 -0.238365
vn -0.210964 0.926923 -0.310334
vn -0.081673 0.936413 -0.341264
vn 0.028975 0.935921 -0.351016
vn 0.110118 0.928451 -0.354758
vn 0.185225 0.914034 -0.360880
vn 0.391758 0.832452 -0.391853
vn 0.733280 0.601941 -0.316178
vn 0.918676 0.283693 -0.274870
vn -0.664347 0.665967 -0.339309
vn -0.759556 0.635025 -0.140779
vn -0.395121 0.664402 -0.634388
vn -0.217210 0.590346 -0.777375
vn -0.068666 0.528082 -0.846413
vn 0.028904 0.490629 -0.870889
vn 0.102182 0.510881 -0.853557
vn 0.191841 0.600604 -0.776190
vn 0.333910 0.637939 -0.693929
vn 0.580366 0.619507 -0.528570
vn 0.743370 0.555632 -0.372391
vn -0.553247 0.650091 -0.520865
vn -0.690754 0.633574 -0.348486
vn -0.281948 0.494774 -0.822012
vn -0.188757 0.335725 -0.922854
vn -0.010543 0.225733 -0.974132
vn 0.043790 0.128956 -0.990683
vn 0.050672 0.204377 -0.977580
vn 0.171034 0.358481 -0.917735
vn 0.252828 0.512341 -0.820722
vn 0.481979 0.594223 -0.643891
vn 0.599769 0.583551 -0.547489
s 1
g pPlane21
usemtl ShaderfxShader2SG
f 1/1/1 2/2/2 13/13/3 12/12/4
f 2/2/2 3/3/5 14/14/6 13/13/3
f 3/3/5 4/4/7 15/15/8 14/14/6
f 4/4/7 5/5/9 16/16/10 15/15/8
f 5/5/9 6/6/11 17/17/12 16/16/10
f 6/6/11 7/7/13 18/18/14 17/17/12
f 7/7/13 8/8/15 19/19/16 18/18/14
f 8/8/15 9/9/17 20/20/18 19/19/16
f 9/9/17 10/10/19 21/21/20 20/20/18
f 10/10/19 11/11/21 22/22/22 21/21/20
f 12/12/4 13/13/3 24/24/23 23/23/24
f 13/13/3 14/14/6 25/25/25 24/24/23
f 14/14/6 15/15/8 26/26/26 25/25/25
f 15/15/8 16/16/10 27/27/27 26/26/26
f 16/16/10 17/17/12 28/28/28 27/27/27
f 17/17/12 18/18/14 29/29/29 28/28/28
f 18/18/14 19/19/16 30/30/30 29/29/29
f 19/19/16 20/20/18 31/31/31 30/30/30
f 20/20/18 21/21/20 32/32/32 31/31/31
f 21/21/20 22/22/22 33/33/33 32/32/32
f 23/23/24 24/24/23 35/35/34 34/34/35
f 24/24/23 25/25/25 36/36/36 35/35/34
f 25/25/25 26/26/26 37/37/37 36/36/36
f 26/26/26 27/27/27 38/38/38 37/37/37
f 27/27/27 28/28/28 39/39/39 38/38/38
f 28/28/28 29/29/29 40/40/40 39/39/39
f 29/29/29 30/30/30 41/41/41 40/40/40
f 30/30/30 31/31/31 42/42/42 41/41/41
f 31/31/31 32/32/32 43/43/43 42/42/42
f 32/32/32 33/33/33 44/44/44 43/43/43
f 34/34/35 35/35/34 46/46/45 45/45/46
f 35/35/34 36/36/36 47/47/47 46/46/45
f 36/36/36 37/37/37 48/48/48 47/47/47
f 37/37/37 38/38/38 49/49/49 48/48/48
f 38/38/38 39/39/39 50/50/50 49/49/49
f 39/39/39 40/40/40 51/51/51 50/50/50
f 40/40/40 41/41/41 52/52/52 51/51/51
f 41/41/41 42/42/42 53/53/53 52/52/52
f 42/42/42 43/43/43 54/54/54 53/53/53
f 43/43/43 44/44/44 55/55/55 54/54/54
f 45/45/46 46/46/45 57/57/56 56/56/57
f 46/46/45 47/47/47 58/58/58 57/57/56
f 47/47/47 48/48/48 59/59/59 58/58/58
f 48/48/48 49/49/49 60/60/60 59/59/59
f 49/49/49 50/50/50 61/61/61 60/60/60
f 50/50/50 51/51/51 62/62/62 61/61/61
f 51/51/51 52/52/52 63/63/63 62/62/62
f 52/52/52 53/53/53 64/64/64 63/63/63
f 53/53/53 54/54/54 65/65/65 64/64/64
f 54/54/54 55/55/55 66/66/66 65/65/65
f 56/56/57 57/57/56 68/68/67 67/67/68
f 57/57/56 58/58/58 69/69/69 68/68/67
f 58/58/58 59/59/59 70/70/70 69/69/69
f 59/59/59 60/60/60 71/71/71 70/70/70
f 60/60/60 61/61/61 72/72/72 71/71/71
f 61/61/61 62/62/62 73/73/73 72/72/72
f 62/62/62 63/63/63 74/74/74 73/73/73
f 63/63/63 64/64/64 75/75/75 74/74/74
f 64/64/64 65/65/65 76/76/76 75/75/75
f 65/65/65 66/66/66 77/77/77 76/76/76
f 67/67/68 68/68/67 79/79/78 78/78/79
f 68/68/67 69/69/69 80/80/80 79/79/78
f 69/69/69 70/70/70 81/81/81 80/80/80
f 70/70/70 71/71/71 82/82/82 81/81/81
f 71/71/71 72/72/72 83/83/83 82/82/82
f 72/72/72 73/73/73 84/84/84 83/83/83
f 73/73/73 74/74/74 85/85/85 84/84/84
f 74/74/74 75/75/75 86/86/86 85/85/85
f 75/75/75 76/76/76 87/87/87 86/86/86
f 76/76/76 77/77/77 88/88/88 87/87/87
f 78/78/79 79/79/78 90/90/89 89/89/90
f 79/79/78 80/80/80 91/91/91 90/90/89
f 80/80/80 81/81/81 92/92/92 91/91/91
f 81/81/81 82/82/82 93/93/93 92/92/92
f 82/82/82 83/83/83 94/94/94 93/93/93
f 83/83/83 84/84/84 95/95/95 94/94/94
f 84/84/84 85/85/85 96/96/96 95/95/95
f 85/85/85 86/86/86 97/97/97 96/96/96
f 86/86/86 87/87/87 98/98/98 97/97/97
f 87/87/87 88/88/88 99/99/99 98/98/98
f 89/89/90 90/90/89 101/101/100 100/100/101
f 90/90/89 91/91/91 102/102/102 101/101/100
f 91/91/91 92/92/92 103/103/103 102/102/102
f 92/92/92 93/93/93 104/104/104 103/103/103
f 93/93/93 94/94/94 105/105/105 104/104/104
f 94/94/94 95/95/95 106/106/106 105/105/105
f 95/95/95 96/96/96 107/107/107 106/106/106
f 96/96/96 97/97/97 108/108/108 107/107/107
f 97/97/97 98/98/98 109/109/109 108/108/108
f 98/98/98 99/99/99 110/110/110 109/109/109
f 100/100/101 101/101/100 112/112/111 111/111/112
f 101/101/100 102/102/102 113/113/113 112/112/111
f 102/102/102 103/103/103 114/114/114 113/113/113
f 103/103/103 104/104/104 115/115/115 114/114/114
f 104/104/104 105/105/105 116/116/116 115/115/115
f 105/105/105 106/106/106 117/117/117 116/116/116
f 106/106/106 107/107/107 118/118/118 117/117/117
f 107/107/107 108/108/108 119/119/119 118/118/118
f 108/108/108 109/109/109 120/120/120 119/119/119
f 109/109/109 110/110/110 121/121/121 120/120/120
