# This file uses centimeters as units for non-parametric coordinates.

mtllib Tree_04.mtl
g default
v -0.299124 5.115390 0.224552
v -0.403310 5.283797 0.070452
v -0.583849 5.364008 0.077222
v -0.660202 5.275811 0.238092
v -0.556016 5.107404 0.392191
v -0.375477 5.027193 0.385421
v 0.502948 7.788247 1.537293
v 0.433966 7.818680 1.435763
v 0.335979 7.836686 1.428986
v 0.306975 7.824260 1.523740
v 0.375958 7.793828 1.625270
v 0.473944 7.775822 1.632046
v 0.023371 5.749850 0.699331
v -0.080485 5.917724 0.545719
v -0.260452 5.997680 0.552468
v -0.336563 5.909763 0.712828
v -0.232707 5.741890 0.866439
v -0.052740 5.661933 0.859690
v 0.327921 6.559912 1.235520
v 0.227166 6.601990 1.086835
v 0.126295 6.616259 1.130330
v 0.084275 6.598674 1.268258
v 0.143357 6.568854 1.363612
v 0.285678 6.541410 1.373358
v 0.408744 6.965225 1.372150
v 0.324394 7.002437 1.248002
v 0.204579 7.024455 1.239716
v 0.169113 7.009261 1.355579
v 0.253463 6.972049 1.479727
v 0.373279 6.950032 1.488013
v 0.445337 7.274184 1.433040
v 0.366991 7.308747 1.317729
v 0.255704 7.329198 1.310033
v 0.222763 7.315085 1.417648
v 0.301109 7.280523 1.532960
v 0.412396 7.260072 1.540656
v 0.478062 7.548460 1.486931
v 0.405047 7.580672 1.379465
v 0.301331 7.599731 1.372293
v 0.270632 7.586578 1.472586
v 0.343647 7.554367 1.580053
v 0.447362 7.535308 1.587225
v -0.124873 5.418497 0.459405
v -0.240011 5.604606 0.289107
v -0.439528 5.693248 0.296588
v -0.523907 5.595780 0.474368
v -0.408769 5.409671 0.644666
v -0.209252 5.321029 0.637185
v 0.219647 6.105103 1.027956
v 0.131736 6.267902 0.900486
v -0.022876 6.340385 0.907938
v -0.091926 6.255956 1.043415
v -0.005656 6.095725 1.174055
v 0.151211 6.017211 1.166494
v -0.186317 5.253897 0.339977
v -0.311185 5.455734 0.155288
v -0.527562 5.551866 0.163402
v -0.619071 5.446162 0.356205
v -0.494203 5.244325 0.540894
v -0.277826 5.148193 0.532780
v -0.213951 5.165747 0.277307
v -0.346520 5.380033 0.081226
v -0.576243 5.482095 0.089841
v -0.673396 5.369871 0.294535
v -0.540827 5.155585 0.490616
v -0.311104 5.053523 0.482002
vt 0.000000 -0.631158
vt 0.167884 -0.631158
vt 0.330998 -0.631158
vt 0.492891 -0.631158
vt 0.652756 -0.631158
vt 0.816172 -0.631158
vt 0.999581 -0.631158
vt 0.000000 1.512639
vt 0.167884 1.512639
vt 0.330998 1.512639
vt 0.492891 1.512639
vt 0.652756 1.512639
vt 0.816172 1.512639
vt 0.999581 1.512639
vt 0.999581 -0.025871
vt 0.000000 -0.025871
vt 0.167884 -0.025871
vt 0.330998 -0.025871
vt 0.492891 -0.025871
vt 0.652756 -0.025871
vt 0.816172 -0.025871
vt 0.999581 0.552396
vt 0.000000 0.552396
vt 0.167884 0.552396
vt 0.330998 0.552396
vt 0.492891 0.552396
vt 0.652756 0.552396
vt 0.816172 0.552396
vt 0.999581 0.829785
vt 0.000000 0.829785
vt 0.167884 0.829785
vt 0.330998 0.829785
vt 0.492891 0.829785
vt 0.652756 0.829785
vt 0.816172 0.829785
vt 0.999581 1.086631
vt 0.000000 1.086631
vt 0.167884 1.086631
vt 0.330998 1.086631
vt 0.492891 1.086631
vt 0.652756 1.086631
vt 0.816172 1.086631
vt 0.999581 1.313588
vt 0.000000 1.313588
vt 0.167884 1.313588
vt 0.330998 1.313588
vt 0.492891 1.313588
vt 0.652756 1.313588
vt 0.816172 1.313588
vt 0.999581 -0.322749
vt 0.000000 -0.322749
vt 0.167884 -0.322749
vt 0.330998 -0.322749
vt 0.492891 -0.322749
vt 0.652756 -0.322749
vt 0.816172 -0.322749
vt 0.999581 0.286648
vt 0.000000 0.286648
vt 0.167884 0.286648
vt 0.330998 0.286648
vt 0.492891 0.286648
vt 0.652756 0.286648
vt 0.816172 0.286648
vt 0.999581 -0.475160
vt 0.000000 -0.475160
vt 0.167884 -0.475160
vt 0.330998 -0.475160
vt 0.492891 -0.475160
vt 0.652756 -0.475160
vt 0.816172 -0.475160
vt 0.999581 -0.553191
vt 0.000000 -0.553191
vt 0.167884 -0.553191
vt 0.330998 -0.553191
vt 0.492891 -0.553191
vt 0.652756 -0.553191
vt 0.816172 -0.553191
vn 0.974220 -0.066012 -0.215728
vn 0.564589 0.114720 -0.817361
vn 0.551473 0.127975 -0.824318
vn 0.975448 -0.056531 -0.212853
vn -0.534444 0.272366 -0.800116
vn -0.562140 0.269291 -0.781973
vn -0.968834 0.114794 0.219504
vn -0.970674 0.101526 0.217910
vn -0.555852 -0.067346 0.828549
vn -0.572406 -0.076918 0.816355
vn 0.556070 -0.208583 0.804537
vn 0.528796 -0.211618 0.821944
vn 0.943026 -0.209728 -0.258297
vn 0.624409 0.300614 -0.720933
vn 0.624051 0.308836 -0.717761
vn 0.930139 -0.222049 -0.292464
vn -0.396733 0.728410 -0.558589
vn -0.374403 0.749271 -0.546274
vn -0.897941 0.301368 0.320749
vn -0.895861 0.314040 0.314344
vn -0.590490 -0.200329 0.781786
vn -0.612918 -0.221258 0.758536
vn 0.439474 -0.610456 0.658943
vn 0.424657 -0.673584 0.604940
vn 0.951502 -0.226937 -0.207712
vn 0.656529 0.277488 -0.701405
vn 0.588325 0.226663 -0.776207
vn 0.973626 -0.148385 -0.173301
vn -0.425528 0.737311 -0.524689
vn -0.611265 0.518826 -0.597641
vn -0.899650 0.287882 0.328260
vn -0.937754 0.209221 0.277207
vn -0.541836 -0.243270 0.804508
vn -0.501914 -0.153246 0.851233
vn 0.452488 -0.592081 0.666854
vn 0.499883 -0.387131 0.774756
vn 0.567633 0.138341 -0.811576
vn 0.974153 -0.107966 -0.198417
vn -0.610498 0.316549 -0.726009
vn -0.969612 0.149515 0.193642
vn -0.517382 -0.092207 0.850772
vn 0.539393 -0.284027 0.792707
vn 0.561813 0.108125 -0.820168
vn 0.973870 -0.073418 -0.214911
vn -0.540597 0.274207 -0.795340
vn -0.966682 0.124657 0.223576
vn -0.555955 -0.056799 0.829270
vn 0.549900 -0.206785 0.809228
vn 0.958186 -0.170059 -0.230128
vn 0.642622 0.335600 -0.688774
vn -0.368939 0.762934 -0.530864
vn -0.885566 0.322606 0.334211
vn -0.577077 -0.181173 0.796341
vn 0.462646 -0.568825 0.679997
vn 0.867439 -0.342021 -0.361346
vn 0.552841 0.151035 -0.819485
vn -0.479059 0.516130 -0.710009
vn -0.969899 0.142055 0.197781
vn -0.659547 -0.355389 0.662341
vn 0.352478 -0.790798 0.500397
vn 0.649888 -0.553024 -0.521355
vn 0.364392 -0.111522 -0.924544
vn -0.542879 0.123730 -0.830646
vn -0.992105 -0.122165 -0.028334
vn -0.717989 -0.574990 0.392273
vn 0.143331 -0.974921 0.170254
s 1
g Rock_05_low1:pCylinder3 Rock_05_low1:group9 Rock_05_low1:group1
usemtl ShaderfxShader2SG
f 37/44/1 38/45/2 8/9/3 7/8/4
f 38/45/2 39/46/5 9/10/6 8/9/3
f 39/46/5 40/47/7 10/11/8 9/10/6
f 40/47/7 41/48/9 11/12/10 10/11/8
f 41/48/9 42/49/11 12/13/12 11/12/10
f 42/49/11 37/43/1 7/14/4 12/13/12
f 43/51/13 44/52/14 14/17/15 13/16/16
f 44/52/14 45/53/17 15/18/18 14/17/15
f 45/53/17 46/54/19 16/19/20 15/18/18
f 46/54/19 47/55/21 17/20/22 16/19/20
f 47/55/21 48/56/23 18/21/24 17/20/22
f 48/56/23 43/50/13 13/15/16 18/21/24
f 49/58/25 50/59/26 20/24/27 19/23/28
f 50/59/26 51/60/29 21/25/30 20/24/27
f 51/60/29 52/61/31 22/26/32 21/25/30
f 52/61/31 53/62/33 23/27/34 22/26/32
f 53/62/33 54/63/35 24/28/36 23/27/34
f 54/63/35 49/57/25 19/22/28 24/28/36
f 19/23/28 20/24/27 26/31/37 25/30/38
f 20/24/27 21/25/30 27/32/39 26/31/37
f 21/25/30 22/26/32 28/33/40 27/32/39
f 22/26/32 23/27/34 29/34/41 28/33/40
f 23/27/34 24/28/36 30/35/42 29/34/41
f 24/28/36 19/22/28 25/29/38 30/35/42
f 25/30/38 26/31/37 32/38/43 31/37/44
f 26/31/37 27/32/39 33/39/45 32/38/43
f 27/32/39 28/33/40 34/40/46 33/39/45
f 28/33/40 29/34/41 35/41/47 34/40/46
f 29/34/41 30/35/42 36/42/48 35/41/47
f 30/35/42 25/29/38 31/36/44 36/42/48
f 31/37/44 32/38/43 38/45/2 37/44/1
f 32/38/43 33/39/45 39/46/5 38/45/2
f 33/39/45 34/40/46 40/47/7 39/46/5
f 34/40/46 35/41/47 41/48/9 40/47/7
f 35/41/47 36/42/48 42/49/11 41/48/9
f 36/42/48 31/36/44 37/43/1 42/49/11
f 55/65/49 56/66/50 44/52/14 43/51/13
f 56/66/50 57/67/51 45/53/17 44/52/14
f 57/67/51 58/68/52 46/54/19 45/53/17
f 58/68/52 59/69/53 47/55/21 46/54/19
f 59/69/53 60/70/54 48/56/23 47/55/21
f 60/70/54 55/64/49 43/50/13 48/56/23
f 13/16/16 14/17/15 50/59/26 49/58/25
f 14/17/15 15/18/18 51/60/29 50/59/26
f 15/18/18 16/19/20 52/61/31 51/60/29
f 16/19/20 17/20/22 53/62/33 52/61/31
f 17/20/22 18/21/24 54/63/35 53/62/33
f 18/21/24 13/15/16 49/57/25 54/63/35
f 61/72/55 62/73/56 56/66/50 55/65/49
f 62/73/56 63/74/57 57/67/51 56/66/50
f 63/74/57 64/75/58 58/68/52 57/67/51
f 64/75/58 65/76/59 59/69/53 58/68/52
f 65/76/59 66/77/60 60/70/54 59/69/53
f 66/77/60 61/71/55 55/64/49 60/70/54
f 1/1/61 2/2/62 62/73/56 61/72/55
f 2/2/62 3/3/63 63/74/57 62/73/56
f 3/3/63 4/4/64 64/75/58 63/74/57
f 4/4/64 5/5/65 65/76/59 64/75/58
f 5/5/65 6/6/66 66/77/60 65/76/59
f 6/6/66 1/7/61 61/71/55 66/77/60
g default
v 0.572344 -0.192852 -0.585401
v -0.268491 -0.288493 -0.585402
v -0.688908 -0.336313 0.147478
v -0.268731 -0.288520 0.880357
v 0.572103 -0.192879 0.880357
v 0.992760 -0.145032 0.147478
v -0.581829 6.972734 -0.103843
v -0.966752 6.972734 -0.103843
v -1.157996 6.972734 0.232389
v -0.966280 6.972734 0.568622
v -0.581830 6.972734 0.568622
v -0.386035 6.972734 0.232389
v 0.127357 1.895851 -0.431568
v -0.494093 1.834946 -0.431568
v -0.805504 1.804604 0.117126
v -0.494973 1.835021 0.665821
v 0.126911 1.895816 0.665821
v 0.437664 1.926304 0.117126
v -0.152039 3.787525 -0.304995
v -0.673474 3.778532 -0.304995
v -0.934336 3.774103 0.147478
v -0.674130 3.778570 0.599951
v -0.152783 3.787479 0.599951
v 0.108029 3.792021 0.147478
v -0.323412 4.703454 -0.263660
v -0.800404 4.703454 -0.263660
v -1.039895 4.703454 0.147478
v -0.802233 4.703454 0.558616
v -0.326595 4.703454 0.558616
v -0.086800 4.703454 0.147478
v -0.512609 5.555352 -0.210789
v -0.949882 5.555352 -0.210790
v -1.163718 5.555352 0.171083
v -0.949044 5.555352 0.552955
v -0.514962 5.555352 0.552955
v -0.283745 5.555352 0.171083
v -0.594004 6.311647 -0.165119
v -0.998402 6.311647 -0.165119
v -1.197070 6.311647 0.190772
v -0.997389 6.311647 0.546663
v -0.594156 6.311647 0.546663
v -0.381935 6.311647 0.190772
v 0.377291 0.940582 -0.460822
v -0.312276 0.861199 -0.460822
v -0.657722 0.821496 0.147478
v -0.312609 0.861188 0.755778
v 0.378005 0.940571 0.755778
v 0.722540 0.980263 0.147478
v -0.070481 2.915441 -0.353137
v -0.629980 2.885179 -0.353137
v -0.909892 2.870063 0.134391
v -0.629672 2.885226 0.621919
v -0.069920 2.915377 0.621919
v 0.209348 2.930591 0.134391
vt 0.001953 -0.431641
vt 0.171684 -0.430461
vt 0.337885 -0.430461
vt 0.503704 -0.430461
vt 0.669266 -0.430461
vt 0.834095 -0.430461
vt 0.998047 -0.431641
vt 0.001953 1.525391
vt 0.171684 1.526432
vt 0.337885 1.526432
vt 0.503704 1.526432
vt 0.669266 1.526432
vt 0.834095 1.526432
vt 0.998047 1.525391
vt 0.998047 0.134766
vt 0.001953 0.134766
vt 0.171684 0.135911
vt 0.337885 0.135911
vt 0.503704 0.135911
vt 0.669266 0.135911
vt 0.834095 0.135911
vt 0.998047 0.654297
vt 0.001953 0.654297
vt 0.171684 0.656032
vt 0.337885 0.656032
vt 0.503704 0.656032
vt 0.669266 0.656032
vt 0.834095 0.656032
vt 0.998047 0.908203
vt 0.001953 0.908203
vt 0.171684 0.907215
vt 0.337885 0.907215
vt 0.503704 0.907215
vt 0.669266 0.907215
vt 0.834095 0.907215
vt 0.998047 1.138672
vt 0.001953 1.138672
vt 0.171684 1.139218
vt 0.337885 1.139218
vt 0.503704 1.139218
vt 0.669266 1.139218
vt 0.834095 1.139218
vt 0.998047 1.345703
vt 0.001953 1.345703
vt 0.171684 1.345738
vt 0.337885 1.345738
vt 0.503704 1.345738
vt 0.669266 1.345738
vt 0.834095 1.345738
vt 0.998047 -0.123047
vt 0.001953 -0.123047
vt 0.171684 -0.124930
vt 0.337885 -0.124930
vt 0.503704 -0.124930
vt 0.669266 -0.124930
vt 0.834095 -0.124930
vt 0.998047 0.416016
vt 0.001953 0.416016
vt 0.171684 0.415810
vt 0.337885 0.415810
vt 0.503704 0.415810
vt 0.669266 0.415810
vt 0.834095 0.415810
vn 0.480385 0.091186 -0.872305
vn -0.518314 0.054962 -0.853422
vn -0.504918 0.102223 -0.857093
vn 0.515623 0.071474 -0.853829
vn -0.999988 0.003653 -0.003336
vn -0.997976 0.060270 0.020286
vn -0.523127 -0.016634 0.852092
vn -0.490238 -0.007050 0.871560
vn 0.487147 0.015872 0.873176
vn 0.500534 -0.036233 0.864959
vn 0.997311 0.073214 -0.003362
vn 0.999790 0.001309 0.020447
vn 0.496286 0.171440 -0.851063
vn -0.497293 0.017697 -0.867402
vn -0.510005 -0.036515 -0.859396
vn 0.474635 0.153388 -0.866714
vn -0.998861 -0.047580 0.003645
vn -0.992347 -0.123232 -0.007856
vn -0.495104 0.040978 0.867867
vn -0.517960 -0.025021 0.855039
vn 0.489402 0.191130 0.850855
vn 0.478043 0.169893 0.861749
vn 0.967139 0.254218 0.003916
vn 0.966273 0.257410 -0.007462
vn 0.476724 0.130112 -0.869370
vn -0.520888 0.005926 -0.853604
vn -0.494453 -0.001522 -0.869203
vn 0.504122 0.113845 -0.856096
vn -0.997815 -0.066070 0.000658
vn -0.997599 -0.069242 0.001516
vn -0.518647 -0.020325 0.854747
vn -0.492415 -0.014620 0.870238
vn 0.478978 0.102276 0.871848
vn 0.502887 0.100829 0.858451
vn 0.983923 0.178589 0.000890
vn 0.987004 0.160655 0.003554
vn -0.498988 -0.029760 -0.866098
vn 0.492154 0.143943 -0.858525
vn -0.991595 -0.129283 -0.004958
vn -0.503686 -0.053467 0.862231
vn 0.495904 0.124729 0.859373
vn 0.975863 0.218380 -0.001226
vn -0.520686 -0.013128 -0.853647
vn 0.478082 0.132900 -0.868202
vn -0.994974 -0.100126 0.001363
vn -0.519868 -0.057729 0.852294
vn 0.479637 0.085061 0.873334
vn 0.982323 0.187157 0.003658
vn 0.479900 0.177910 -0.859095
vn -0.512197 0.074027 -0.855672
vn -0.999681 0.025241 -0.000204
vn -0.512107 0.074030 0.855726
vn 0.479641 0.177691 0.859285
vn 0.972803 0.231636 -0.000186
s 1
g Rock_05_low1:group9 Rock_05_low1:group1 Rock_05_low1:pCylinder1
usemtl ShaderfxShader2SG
f 103/121/67 104/122/68 74/86/69 73/85/70
f 104/122/68 105/123/71 75/87/72 74/86/69
f 105/123/71 106/124/73 76/88/74 75/87/72
f 106/124/73 107/125/75 77/89/76 76/88/74
f 107/125/75 108/126/77 78/90/78 77/89/76
f 108/126/77 103/120/67 73/91/70 78/90/78
f 109/128/79 110/129/80 80/94/81 79/93/82
f 110/129/80 111/130/83 81/95/84 80/94/81
f 111/130/83 112/131/85 82/96/86 81/95/84
f 112/131/85 113/132/87 83/97/88 82/96/86
f 113/132/87 114/133/89 84/98/90 83/97/88
f 114/133/89 109/127/79 79/92/82 84/98/90
f 115/135/91 116/136/92 86/101/93 85/100/94
f 116/136/92 117/137/95 87/102/96 86/101/93
f 117/137/95 118/138/97 88/103/98 87/102/96
f 118/138/97 119/139/99 89/104/100 88/103/98
f 119/139/99 120/140/101 90/105/102 89/104/100
f 120/140/101 115/134/91 85/99/94 90/105/102
f 85/100/94 86/101/93 92/108/103 91/107/104
f 86/101/93 87/102/96 93/109/105 92/108/103
f 87/102/96 88/103/98 94/110/106 93/109/105
f 88/103/98 89/104/100 95/111/107 94/110/106
f 89/104/100 90/105/102 96/112/108 95/111/107
f 90/105/102 85/99/94 91/106/104 96/112/108
f 91/107/104 92/108/103 98/115/109 97/114/110
f 92/108/103 93/109/105 99/116/111 98/115/109
f 93/109/105 94/110/106 100/117/112 99/116/111
f 94/110/106 95/111/107 101/118/113 100/117/112
f 95/111/107 96/112/108 102/119/114 101/118/113
f 96/112/108 91/106/104 97/113/110 102/119/114
f 97/114/110 98/115/109 104/122/68 103/121/67
f 98/115/109 99/116/111 105/123/71 104/122/68
f 99/116/111 100/117/112 106/124/73 105/123/71
f 100/117/112 101/118/113 107/125/75 106/124/73
f 101/118/113 102/119/114 108/126/77 107/125/75
f 102/119/114 97/113/110 103/120/67 108/126/77
f 67/78/115 68/79/116 110/129/80 109/128/79
f 68/79/116 69/80/117 111/130/83 110/129/80
f 69/80/117 70/81/118 112/131/85 111/130/83
f 70/81/118 71/82/119 113/132/87 112/131/85
f 71/82/119 72/83/120 114/133/89 113/132/87
f 72/83/120 67/84/115 109/127/79 114/133/89
f 79/93/82 80/94/81 116/136/92 115/135/91
f 80/94/81 81/95/84 117/137/95 116/136/92
f 81/95/84 82/96/86 118/138/97 117/137/95
f 82/96/86 83/97/88 119/139/99 118/138/97
f 83/97/88 84/98/90 120/140/101 119/139/99
f 84/98/90 79/92/82 115/134/91 120/140/101
g default
v -0.481447 4.438861 0.387462
v -0.409812 4.449376 0.194952
v -0.473903 4.221933 0.042650
v -0.609761 3.984574 0.082683
v -0.681395 3.974060 0.275193
v -0.617171 4.200904 0.427670
v -3.177940 7.429411 -0.711625
v -3.137976 7.450314 -0.803935
v -3.207264 7.379428 -0.902561
v -3.316517 7.287637 -0.908878
v -3.356481 7.266733 -0.816568
v -3.287192 7.337620 -0.717941
v -1.209423 5.052956 0.101383
v -1.105170 5.062989 -0.073489
v -1.202759 4.965700 -0.238071
v -1.386470 4.830708 -0.252441
v -1.473468 4.821299 -0.068256
v -1.374490 4.946385 0.099277
v -2.090487 5.901586 -0.242304
v -2.032345 5.918670 -0.360917
v -2.054276 5.770262 -0.535016
v -2.178314 5.587552 -0.516650
v -2.246174 5.609313 -0.363032
v -2.186674 5.809247 -0.263314
v -2.403239 6.211179 -0.413280
v -2.345075 6.232485 -0.521851
v -2.447768 6.191494 -0.652430
v -2.607441 6.123895 -0.672892
v -2.665101 6.100333 -0.563663
v -2.565282 6.161003 -0.447456
v -2.677457 6.757804 -0.529385
v -2.624038 6.777547 -0.628959
v -2.719969 6.737391 -0.747575
v -2.835748 6.693925 -0.765857
v -2.887854 6.673594 -0.668516
v -2.792429 6.716007 -0.550560
v -2.968746 7.225146 -0.627330
v -2.918586 7.244435 -0.721558
v -2.966300 7.238455 -0.830631
v -3.083762 7.095862 -0.847326
v -3.133874 7.076359 -0.753034
v -3.046362 7.118022 -0.641804
v -0.866172 4.748913 0.245582
v -0.777410 4.761644 0.037371
v -0.888059 4.551398 -0.150861
v -1.086888 4.316630 -0.129885
v -1.175638 4.303843 0.078343
v -1.065673 4.526333 0.265446
v -1.752746 5.651444 -0.081455
v -1.675001 5.678997 -0.249648
v -1.615978 5.381273 -0.384701
v -1.793419 5.264562 -0.383608
v -1.866561 5.288117 -0.218119
v -1.763511 5.449659 -0.092038
v -0.680482 4.611738 0.332558
v -0.594628 4.624340 0.101835
v -0.670517 4.347620 -0.079496
v -0.832211 4.058085 -0.030040
v -0.918136 4.045799 0.200591
v -0.842325 4.322866 0.381821
v -0.562642 4.558939 0.389614
v -0.471493 4.572318 0.144659
v -0.552642 4.281124 -0.048613
v -0.724989 3.976768 0.003008
v -0.816139 3.963389 0.247963
v -0.734941 4.254367 0.441297
vt 0.000000 -0.631158
vt 0.167884 -0.631158
vt 0.330998 -0.631158
vt 0.492891 -0.631158
vt 0.652756 -0.631158
vt 0.816172 -0.631158
vt 0.999581 -0.631158
vt 0.000000 1.512639
vt 0.167884 1.512639
vt 0.330998 1.512639
vt 0.492891 1.512639
vt 0.652756 1.512639
vt 0.816172 1.512639
vt 0.999581 1.512639
vt 0.999581 -0.025871
vt 0.000000 -0.025871
vt 0.167884 -0.025871
vt 0.330998 -0.025871
vt 0.492891 -0.025871
vt 0.652756 -0.025871
vt 0.816172 -0.025871
vt 0.999581 0.552396
vt 0.000000 0.552396
vt 0.167884 0.552396
vt 0.330998 0.552396
vt 0.492891 0.552396
vt 0.652756 0.552396
vt 0.816172 0.552396
vt 0.999581 0.829785
vt 0.000000 0.829785
vt 0.167884 0.829785
vt 0.330998 0.829785
vt 0.492891 0.829785
vt 0.652756 0.829785
vt 0.816172 0.829785
vt 0.999581 1.086631
vt 0.000000 1.086631
vt 0.167884 1.086631
vt 0.330998 1.086631
vt 0.492891 1.086631
vt 0.652756 1.086631
vt 0.816172 1.086631
vt 0.999581 1.313588
vt 0.000000 1.313588
vt 0.167884 1.313588
vt 0.330998 1.313588
vt 0.492891 1.313588
vt 0.652756 1.313588
vt 0.816172 1.313588
vt 0.999581 -0.322749
vt 0.000000 -0.322749
vt 0.167884 -0.322749
vt 0.330998 -0.322749
vt 0.492891 -0.322749
vt 0.652756 -0.322749
vt 0.816172 -0.322749
vt 0.999581 0.286648
vt 0.000000 0.286648
vt 0.167884 0.286648
vt 0.330998 0.286648
vt 0.492891 0.286648
vt 0.652756 0.286648
vt 0.816172 0.286648
vt 0.999581 -0.475160
vt 0.000000 -0.475160
vt 0.167884 -0.475160
vt 0.330998 -0.475160
vt 0.492891 -0.475160
vt 0.652756 -0.475160
vt 0.816172 -0.475160
vt 0.999581 -0.553191
vt 0.000000 -0.553191
vt 0.167884 -0.553191
vt 0.330998 -0.553191
vt 0.492891 -0.553191
vt 0.652756 -0.553191
vt 0.816172 -0.553191
vn 0.250826 0.421895 0.871258
vn 0.813364 0.573006 -0.100518
vn 0.664186 0.736133 -0.130247
vn 0.110101 0.453067 0.884652
vn 0.518813 0.203047 -0.830424
vn 0.365860 0.121678 -0.922681
vn -0.119731 -0.322831 -0.938853
vn -0.150529 -0.478693 -0.864982
vn -0.787331 -0.572407 0.229043
vn -0.676224 -0.696000 0.241463
vn -0.467627 -0.123959 0.875191
vn -0.459107 -0.198368 0.865951
vn 0.135468 0.578090 0.804649
vn 0.683361 0.642157 -0.347350
vn 0.731999 0.646019 -0.216419
vn 0.245414 0.552341 0.796676
vn 0.347176 0.055363 -0.936164
vn 0.443287 0.155554 -0.882779
vn -0.347858 -0.483938 -0.802994
vn -0.297237 -0.435729 -0.849583
vn -0.819529 -0.517861 0.245341
vn -0.829078 -0.492341 0.265008
vn -0.521654 -0.050070 0.851687
vn -0.503084 -0.062506 0.861974
vn 0.236181 0.564545 0.790890
vn 0.699493 0.689677 -0.187231
vn 0.673049 0.691631 -0.262016
vn 0.036066 0.520434 0.853140
vn 0.467077 0.181086 -0.865475
vn 0.423220 0.147412 -0.893954
vn -0.260811 -0.541918 -0.798938
vn -0.268810 -0.545506 -0.793829
vn -0.730861 -0.547371 0.407710
vn -0.729327 -0.558918 0.394580
vn -0.464468 -0.099082 0.880030
vn -0.500672 -0.114473 0.858034
vn 0.811068 0.530405 -0.246653
vn 0.153772 0.419287 0.894736
vn 0.435071 0.080675 -0.896775
vn -0.324744 -0.400774 -0.856692
vn -0.855441 -0.465650 0.226693
vn -0.534292 -0.092009 0.840278
vn 0.877412 0.449640 -0.167249
vn 0.279474 0.345034 0.896017
vn 0.503400 0.110781 -0.856922
vn -0.223347 -0.273533 -0.935573
vn -0.896497 -0.390964 0.208421
vn -0.497789 -0.070636 0.864417
vn 0.017457 0.621851 0.782941
vn 0.580119 0.676840 -0.453154
vn 0.313471 0.031848 -0.949064
vn -0.262367 -0.580740 -0.770652
vn -0.727390 -0.597302 0.337838
vn -0.500319 -0.047393 0.864543
vn 0.215120 0.561815 0.798804
vn 0.702771 0.608904 -0.367897
vn 0.495064 -0.002200 -0.868854
vn 0.063783 -0.706603 -0.704730
vn -0.439123 -0.760419 0.478470
vn -0.286438 -0.102794 0.952568
vn 0.509315 0.329148 0.795148
vn 0.905723 0.371645 -0.203827
vn 0.710218 -0.126925 -0.692446
vn 0.392588 -0.775384 -0.494625
vn -0.045919 -0.841281 0.538644
vn 0.012032 -0.227159 0.973783
s 1
g Rock_05_low1:group9 Rock_05_low1:group1 Rock_05_low1:pCylinder4
usemtl ShaderfxShader2SG
f 157/184/121 158/185/122 128/149/123 127/148/124
f 158/185/122 159/186/125 129/150/126 128/149/123
f 159/186/125 160/187/127 130/151/128 129/150/126
f 160/187/127 161/188/129 131/152/130 130/151/128
f 161/188/129 162/189/131 132/153/132 131/152/130
f 162/189/131 157/183/121 127/154/124 132/153/132
f 163/191/133 164/192/134 134/157/135 133/156/136
f 164/192/134 165/193/137 135/158/138 134/157/135
f 165/193/137 166/194/139 136/159/140 135/158/138
f 166/194/139 167/195/141 137/160/142 136/159/140
f 167/195/141 168/196/143 138/161/144 137/160/142
f 168/196/143 163/190/133 133/155/136 138/161/144
f 169/198/145 170/199/146 140/164/147 139/163/148
f 170/199/146 171/200/149 141/165/150 140/164/147
f 171/200/149 172/201/151 142/166/152 141/165/150
f 172/201/151 173/202/153 143/167/154 142/166/152
f 173/202/153 174/203/155 144/168/156 143/167/154
f 174/203/155 169/197/145 139/162/148 144/168/156
f 139/163/148 140/164/147 146/171/157 145/170/158
f 140/164/147 141/165/150 147/172/159 146/171/157
f 141/165/150 142/166/152 148/173/160 147/172/159
f 142/166/152 143/167/154 149/174/161 148/173/160
f 143/167/154 144/168/156 150/175/162 149/174/161
f 144/168/156 139/162/148 145/169/158 150/175/162
f 145/170/158 146/171/157 152/178/163 151/177/164
f 146/171/157 147/172/159 153/179/165 152/178/163
f 147/172/159 148/173/160 154/180/166 153/179/165
f 148/173/160 149/174/161 155/181/167 154/180/166
f 149/174/161 150/175/162 156/182/168 155/181/167
f 150/175/162 145/169/158 151/176/164 156/182/168
f 151/177/164 152/178/163 158/185/122 157/184/121
f 152/178/163 153/179/165 159/186/125 158/185/122
f 153/179/165 154/180/166 160/187/127 159/186/125
f 154/180/166 155/181/167 161/188/129 160/187/127
f 155/181/167 156/182/168 162/189/131 161/188/129
f 156/182/168 151/176/164 157/183/121 162/189/131
f 175/205/169 176/206/170 164/192/134 163/191/133
f 176/206/170 177/207/171 165/193/137 164/192/134
f 177/207/171 178/208/172 166/194/139 165/193/137
f 178/208/172 179/209/173 167/195/141 166/194/139
f 179/209/173 180/210/174 168/196/143 167/195/141
f 180/210/174 175/204/169 163/190/133 168/196/143
f 133/156/136 134/157/135 170/199/146 169/198/145
f 134/157/135 135/158/138 171/200/149 170/199/146
f 135/158/138 136/159/140 172/201/151 171/200/149
f 136/159/140 137/160/142 173/202/153 172/201/151
f 137/160/142 138/161/144 174/203/155 173/202/153
f 138/161/144 133/155/136 169/197/145 174/203/155
f 181/212/175 182/213/176 176/206/170 175/205/169
f 182/213/176 183/214/177 177/207/171 176/206/170
f 183/214/177 184/215/178 178/208/172 177/207/171
f 184/215/178 185/216/179 179/209/173 178/208/172
f 185/216/179 186/217/180 180/210/174 179/209/173
f 186/217/180 181/211/175 175/204/169 180/210/174
f 121/141/181 122/142/182 182/213/176 181/212/175
f 122/142/182 123/143/183 183/214/177 182/213/176
f 123/143/183 124/144/184 184/215/178 183/214/177
f 124/144/184 125/145/185 185/216/179 184/215/178
f 125/145/185 126/146/186 186/217/180 185/216/179
f 126/146/186 121/147/181 181/211/175 186/217/180
