# This file uses centimeters as units for non-parametric coordinates.

mtllib Wall_01.mtl
g default
v -4.914499 -0.640775 -0.868330
v -4.594678 -0.913681 -0.723514
v -3.675742 -0.913681 -0.723514
v -2.756807 -1.265779 -0.723514
v -1.837871 -1.265779 -0.722625
v -0.918935 -1.265779 -0.721599
v 0.000000 -1.265779 -0.721248
v 0.918936 -1.265779 -0.721599
v 1.837872 -0.913681 -0.722625
v 2.756807 -0.913681 -0.723514
v 3.675743 -0.913681 -0.723514
v 4.594678 -0.913681 -0.723514
v 4.911377 -0.692037 -1.024967
v -4.914499 -0.343949 -0.723998
v -4.594678 -0.592555 0.137486
v -3.675742 -0.592555 0.138041
v -2.756807 -0.944653 0.140470
v -1.837871 -0.944653 0.142362
v -0.918935 -0.944653 0.143576
v 0.000000 -0.944653 0.143996
v 0.918936 -0.944653 0.143576
v 1.837872 -0.592555 0.142362
v 2.756807 -0.592555 0.140470
v 3.675743 -0.592555 0.138041
v 4.594678 -0.592555 0.137486
v 4.911377 -0.215983 -0.725153
v -4.914499 0.326381 -0.723998
v -4.594678 0.326381 0.138041
v -3.699492 0.302631 0.352997
v -2.774619 0.302631 0.355803
v -1.849746 -0.049467 0.358058
v -0.924873 -0.049467 0.359549
v -0.000000 -0.049467 0.360074
v 0.924874 -0.049467 0.221825
v 1.849746 0.302631 0.220334
v 2.774619 0.302631 0.218080
v 3.699493 0.302631 0.215274
v 4.594678 0.326381 0.000318
v 4.911377 0.326381 -0.862876
v -4.914499 1.245316 -0.861722
v -4.594678 1.245316 0.002746
v -3.699492 1.227504 0.218080
v -2.774619 1.227504 0.221315
v -1.849746 0.875406 0.224036
v -0.924873 0.875406 0.225929
v -0.000000 0.875406 0.226623
v 0.924874 0.875406 0.225929
v 1.849746 1.227504 0.224036
v 2.774619 1.227504 0.221315
v 3.699493 1.227504 0.218080
v 4.594678 1.245316 0.002746
v 4.911377 1.245316 -0.862876
v -4.663400 2.164252 -0.860833
v -4.343579 2.164252 0.004638
v -3.448393 2.152377 0.220334
v -2.523520 1.800279 0.224036
v -1.598647 1.800279 0.227355
v -0.673774 1.800279 0.229886
v 0.251099 1.800279 0.230894
v 1.175973 2.152377 0.229886
v 2.100846 2.152377 0.227355
v 3.025718 2.152377 0.224036
v 3.950592 2.152377 0.220334
v 4.845778 2.164252 0.004638
v 5.162477 2.164252 -0.861987
v -4.914499 3.083188 -0.859570
v -4.594678 3.083188 0.006090
v -3.699492 3.077250 0.222062
v -2.774619 2.725152 0.226166
v -1.849746 2.725152 0.230123
v -0.924873 2.725152 0.233633
v -0.000000 2.725152 0.235403
v 0.924874 2.725152 0.233633
v 1.849746 3.077250 0.230123
v 2.774619 3.077250 0.226166
v 3.699493 3.077250 0.222062
v 4.594678 3.083188 0.006090
v 4.911377 3.083188 -0.860725
v -4.914499 4.002123 -0.859219
v -4.594678 4.002123 0.006510
v -3.699492 4.002123 0.222588
v -2.774619 3.650025 0.226860
v -1.849746 3.650025 0.231131
v -0.924873 3.650025 0.235403
v -0.000000 3.650025 0.239674
v 0.924874 3.650025 0.235403
v 1.849746 4.002123 0.231131
v 2.774619 4.002123 0.226860
v 3.699493 4.002123 0.222588
v 4.594678 4.002123 0.006510
v 4.911377 4.002123 -0.860373
v -5.057381 4.921059 -0.859570
v -4.737561 4.921059 0.006090
v -3.842375 4.926997 0.222062
v -2.917502 4.926997 0.226166
v -1.992629 4.574899 0.230123
v -1.067756 4.574899 0.233633
v -0.142883 4.574899 0.235403
v 0.781991 4.574899 0.233633
v 1.706864 4.926997 0.230123
v 2.631737 4.926997 0.226166
v 3.556610 4.926997 0.222062
v 4.451796 4.921059 0.006090
v 4.768495 4.921059 -0.860725
v -4.914499 5.839994 -1.176809
v -4.594678 5.839994 -0.311338
v -3.699492 5.851870 -0.095642
v -2.774619 5.499772 -0.091940
v -1.849746 5.499772 -0.088621
v -0.924873 5.499772 -0.086091
v -0.000000 5.499772 -0.085083
v 0.924874 5.851870 -0.086091
v 1.849746 5.851870 -0.088621
v 2.774619 5.851870 -0.091940
v 3.699493 5.851870 -0.095642
v 4.594678 5.839994 -0.311338
v 4.911377 5.839994 -1.177964
v -4.914499 6.758930 -0.861485
v -4.594678 6.758930 0.002983
v -3.699492 6.776742 0.218317
v -2.774619 6.424644 0.221552
v -1.849746 6.424644 0.224273
v -0.924873 6.424644 -0.090047
v -0.000000 6.424644 -0.089354
v 0.924874 6.776742 -0.090047
v 1.849746 6.776742 -0.091940
v 2.774619 6.776742 -0.094662
v 3.699493 6.776742 -0.097897
v 4.594678 6.758930 -0.313230
v 4.911377 6.758930 -1.178853
v -4.914499 7.677866 -0.861485
v -4.594678 7.677866 0.000555
v -3.699492 7.701616 0.215511
v -2.774619 7.349518 0.218317
v -1.849746 7.349518 0.220572
v -0.924873 7.349518 0.222062
v -0.000000 7.349518 0.222588
v 0.924874 7.701616 0.222062
v 1.849746 7.701616 0.220572
v 2.774619 7.701616 0.218317
v 3.699493 7.701616 0.215511
v 4.594678 7.677866 0.000555
v 4.911377 7.677866 -0.862639
v -4.914499 8.353532 -0.861485
v -4.594678 8.596802 0.000000
v -3.675742 8.596802 0.000555
v -2.756807 8.244704 0.002983
v -1.837871 8.244704 0.004875
v -0.918935 8.244703 0.006090
v 0.000000 8.244703 0.006510
v 0.918936 8.596802 0.006090
v 1.837872 8.596802 0.004875
v 2.756807 8.596802 0.002983
v 3.675743 8.596802 0.000555
v 4.594678 8.596802 0.000000
v 4.911377 8.327489 -0.862639
v -4.661764 8.697611 -1.209755
v -4.296580 8.697611 -0.996840
v -3.675742 8.697610 -0.913389
v -2.756807 8.345512 -0.913389
v -1.837871 8.345512 -0.912500
v -0.918935 8.345512 -0.911474
v 0.000000 8.345512 -0.911123
v 0.918936 8.345512 -0.911474
v 1.837872 8.697610 -0.912501
v 2.756807 8.697610 -0.913389
v 3.675743 8.697610 -0.913389
v 4.404309 8.697610 -0.913389
v 4.847436 8.697611 -1.177428
vt 0.000000 0.000000
vt 0.083333 0.000000
vt 0.166667 0.000000
vt 0.250000 0.000000
vt 0.333333 0.000000
vt 0.416667 0.000000
vt 0.500000 0.000000
vt 0.583333 0.000000
vt 0.666667 0.000000
vt 0.750000 0.000000
vt 0.833333 0.000000
vt 0.916667 0.000000
vt 1.000000 0.000000
vt 0.000000 0.083333
vt 0.083333 0.083333
vt 0.166667 0.083333
vt 0.250000 0.083333
vt 0.333333 0.083333
vt 0.416667 0.083333
vt 0.500000 0.083333
vt 0.583333 0.083333
vt 0.666667 0.083333
vt 0.750000 0.083333
vt 0.833333 0.083333
vt 0.916667 0.083333
vt 1.000000 0.083333
vt 0.000000 0.166667
vt 0.083333 0.166667
vt 0.166667 0.166667
vt 0.250000 0.166667
vt 0.333333 0.166667
vt 0.416667 0.166667
vt 0.500000 0.166667
vt 0.583333 0.166667
vt 0.666667 0.166667
vt 0.750000 0.166667
vt 0.833333 0.166667
vt 0.916667 0.166667
vt 1.000000 0.166667
vt 0.000000 0.250000
vt 0.083333 0.250000
vt 0.166667 0.250000
vt 0.250000 0.250000
vt 0.333333 0.250000
vt 0.416667 0.250000
vt 0.500000 0.250000
vt 0.583333 0.250000
vt 0.666667 0.250000
vt 0.750000 0.250000
vt 0.833333 0.250000
vt 0.916667 0.250000
vt 1.000000 0.250000
vt 0.000000 0.333333
vt 0.083333 0.333333
vt 0.166667 0.333333
vt 0.250000 0.333333
vt 0.333333 0.333333
vt 0.416667 0.333333
vt 0.500000 0.333333
vt 0.583333 0.333333
vt 0.666667 0.333333
vt 0.750000 0.333333
vt 0.833333 0.333333
vt 0.916667 0.333333
vt 1.000000 0.333333
vt 0.000000 0.416667
vt 0.083333 0.416667
vt 0.166667 0.416667
vt 0.250000 0.416667
vt 0.333333 0.416667
vt 0.416667 0.416667
vt 0.500000 0.416667
vt 0.583333 0.416667
vt 0.666667 0.416667
vt 0.750000 0.416667
vt 0.833333 0.416667
vt 0.916667 0.416667
vt 1.000000 0.416667
vt 0.000000 0.500000
vt 0.083333 0.500000
vt 0.166667 0.500000
vt 0.250000 0.500000
vt 0.333333 0.500000
vt 0.416667 0.500000
vt 0.500000 0.500000
vt 0.583333 0.500000
vt 0.666667 0.500000
vt 0.750000 0.500000
vt 0.833333 0.500000
vt 0.916667 0.500000
vt 1.000000 0.500000
vt 0.000000 0.583333
vt 0.083333 0.583333
vt 0.166667 0.583333
vt 0.250000 0.583333
vt 0.333333 0.583333
vt 0.416667 0.583333
vt 0.500000 0.583333
vt 0.583333 0.583333
vt 0.666667 0.583333
vt 0.750000 0.583333
vt 0.833333 0.583333
vt 0.916667 0.583333
vt 1.000000 0.583333
vt 0.000000 0.666667
vt 0.083333 0.666667
vt 0.166667 0.666667
vt 0.250000 0.666667
vt 0.333333 0.666667
vt 0.416667 0.666667
vt 0.500000 0.666667
vt 0.583333 0.666667
vt 0.666667 0.666667
vt 0.750000 0.666667
vt 0.833333 0.666667
vt 0.916667 0.666667
vt 1.000000 0.666667
vt 0.000000 0.750000
vt 0.083333 0.750000
vt 0.166667 0.750000
vt 0.250000 0.750000
vt 0.333333 0.750000
vt 0.416667 0.750000
vt 0.500000 0.750000
vt 0.583333 0.750000
vt 0.666667 0.750000
vt 0.750000 0.750000
vt 0.833333 0.750000
vt 0.916667 0.750000
vt 1.000000 0.750000
vt 0.000000 0.833333
vt 0.083333 0.833333
vt 0.166667 0.833333
vt 0.250000 0.833333
vt 0.333333 0.833333
vt 0.416667 0.833333
vt 0.500000 0.833333
vt 0.583333 0.833333
vt 0.666667 0.833333
vt 0.750000 0.833333
vt 0.833333 0.833333
vt 0.916667 0.833333
vt 1.000000 0.833333
vt 0.000000 0.916667
vt 0.083333 0.916667
vt 0.166667 0.916667
vt 0.250000 0.916667
vt 0.333333 0.916667
vt 0.416667 0.916667
vt 0.500000 0.916667
vt 0.583333 0.916667
vt 0.666667 0.916667
vt 0.750000 0.916667
vt 0.833333 0.916667
vt 0.916667 0.916667
vt 1.000000 0.916667
vt 0.000000 1.000000
vt 0.083333 1.000000
vt 0.166667 1.000000
vt 0.250000 1.000000
vt 0.333333 1.000000
vt 0.416667 1.000000
vt 0.500000 1.000000
vt 0.583333 1.000000
vt 0.666667 1.000000
vt 0.750000 1.000000
vt 0.833333 1.000000
vt 0.916667 1.000000
vt 1.000000 1.000000
vn -0.835156 -0.468571 0.288020
vn -0.279564 -0.886601 0.368488
vn -0.429817 -0.518467 0.739223
vn -0.929467 -0.147749 0.338025
vn -0.183679 -0.921149 0.343141
vn -0.132733 -0.578107 0.805093
vn -0.169987 -0.923664 0.343436
vn -0.128249 -0.642003 0.755900
vn -0.000476 -0.937453 0.348111
vn -0.013441 -0.637749 0.770127
vn -0.000285 -0.937501 0.347983
vn -0.000706 -0.663629 0.748062
vn 0.000000 -0.937509 0.347961
vn 0.020866 -0.651463 0.758393
vn 0.170010 -0.923853 0.342917
vn 0.147453 -0.657916 0.738515
vn 0.183712 -0.921499 0.342183
vn 0.107924 -0.570780 0.813979
vn 0.000494 -0.937301 0.348521
vn 0.001776 -0.611164 0.791502
vn 0.000283 -0.937089 0.349090
vn 0.035572 -0.588857 0.807454
vn 0.418389 -0.829954 0.368954
vn 0.411350 -0.481851 0.773700
vn 0.876304 -0.397130 0.272726
vn 0.936559 -0.101809 0.335400
vn -0.615369 0.024445 0.787860
vn -0.937244 0.028716 0.347491
vn -0.095449 -0.015335 0.995316
vn -0.005257 -0.020428 0.999777
vn -0.004955 -0.062698 0.998020
vn -0.001119 -0.044838 0.998994
vn 0.036887 -0.044801 0.998315
vn 0.048823 -0.050037 0.997553
vn 0.008798 -0.040008 0.999161
vn 0.002764 -0.044335 0.999013
vn 0.089935 -0.014682 0.995840
vn 0.626796 0.024919 0.778785
vn 0.936681 0.026245 0.349198
vn -0.687977 0.146222 0.710849
vn -0.926702 0.153581 0.342981
vn -0.131476 0.092974 0.986950
vn 0.007997 0.068383 0.997627
vn 0.014880 0.081975 0.996523
vn -0.001508 0.070264 0.997527
vn 0.018198 0.049867 0.998590
vn 0.019745 0.013305 0.999717
vn 0.003119 -0.004020 0.999987
vn 0.003222 -0.003738 0.999988
vn 0.109517 -0.016233 0.993852
vn 0.641017 -0.089038 0.762345
vn 0.930943 -0.131335 0.340728
vn -0.620494 -0.001960 0.784208
vn -0.937977 -0.000443 0.346696
vn -0.107874 -0.002266 0.994162
vn -0.004179 -0.003005 0.999987
vn -0.003242 -0.003619 0.999988
vn -0.001883 -0.004249 0.999989
vn 0.000650 -0.004409 0.999990
vn 0.002916 -0.003922 0.999988
vn 0.003539 -0.003175 0.999989
vn 0.003825 -0.002549 0.999989
vn 0.138872 -0.002337 0.990308
vn 0.711231 -0.000746 0.702958
vn 0.939222 -0.000610 0.343309
vn -0.683958 -0.094642 0.723357
vn -0.930816 -0.123738 0.343904
vn -0.131784 -0.020361 0.991069
vn -0.004775 -0.002345 0.999986
vn -0.003992 -0.002607 0.999989
vn -0.003134 -0.003492 0.999989
vn -0.000010 -0.004015 0.999992
vn 0.003457 -0.003277 0.999989
vn 0.004318 -0.001693 0.999989
vn 0.004270 -0.001052 0.999990
vn 0.110102 0.012495 0.993842
vn 0.640778 0.085931 0.762902
vn 0.931234 0.130521 0.340248
vn -0.650547 -0.050325 0.757797
vn -0.935466 -0.073936 0.345597
vn -0.108796 -0.007968 0.994032
vn -0.004548 -0.000353 0.999990
vn -0.004316 -0.000308 0.999991
vn -0.003713 -0.000242 0.999993
vn 0.000159 0.000025 1.000000
vn 0.003764 0.000037 0.999993
vn 0.004211 0.000524 0.999991
vn 0.004490 0.000341 0.999990
vn 0.125511 0.010145 0.992040
vn 0.677702 0.052848 0.733435
vn 0.936867 0.071590 0.342280
vn -0.661170 0.118521 0.740815
vn -0.935118 0.078653 0.345496
vn -0.113635 0.166815 0.979418
vn 0.032131 0.190961 0.981072
vn 0.009880 0.149068 0.988778
vn -0.003077 0.171257 0.985222
vn -0.014374 0.166127 0.986000
vn -0.023722 0.140727 0.989764
vn -0.016284 0.177605 0.983967
vn 0.004211 0.169940 0.985445
vn 0.106550 0.167524 0.980093
vn 0.608458 0.140872 0.780982
vn 0.938010 0.051730 0.342725
vn -0.695432 0.063279 0.715800
vn -0.935177 0.077228 0.345658
vn -0.145508 -0.027888 0.988964
vn 0.008214 0.042875 0.999047
vn 0.056477 0.047841 0.997257
vn 0.040369 0.131142 0.990541
vn -0.020342 0.181636 0.983156
vn -0.025339 0.143427 0.989337
vn -0.010969 0.165427 0.986161
vn 0.003743 0.170628 0.985328
vn 0.125337 0.160470 0.979051
vn 0.699421 0.063108 0.711918
vn 0.939153 -0.011682 0.343299
vn -0.631255 -0.129620 0.764667
vn -0.935888 -0.064439 0.346355
vn -0.139400 -0.142723 0.979897
vn -0.041721 -0.183695 0.982098
vn 0.080121 -0.164318 0.983148
vn 0.081197 -0.163850 0.983138
vn 0.024233 -0.145674 0.989036
vn 0.039654 -0.182707 0.982367
vn 0.002509 -0.164877 0.986311
vn 0.003198 -0.165401 0.986221
vn 0.116771 -0.167782 0.978884
vn 0.682001 -0.122056 0.721094
vn 0.937811 -0.052101 0.343214
vn -0.629208 0.035434 0.776429
vn -0.937626 0.000302 0.347646
vn -0.062205 0.103313 0.992702
vn 0.015153 0.105657 0.994287
vn 0.041283 0.076546 0.996211
vn 0.042333 -0.009831 0.999055
vn 0.022204 -0.084931 0.996140
vn -0.000980 -0.021213 0.999775
vn 0.002061 -0.053587 0.998561
vn 0.002762 -0.054006 0.998537
vn 0.086338 -0.078813 0.993144
vn 0.594324 -0.103422 0.797548
vn 0.936670 -0.068684 0.343413
vn -0.475843 0.544088 0.691044
vn -0.879058 0.374864 0.294505
vn 0.115022 0.745020 0.657050
vn 0.135799 0.713186 0.687695
vn -0.001194 0.750204 0.661205
vn -0.000642 0.750367 0.661022
vn -0.088744 0.746269 0.659702
vn -0.153234 0.821213 0.549662
vn -0.059223 0.778116 0.625322
vn 0.001606 0.749790 0.661674
vn 0.037986 0.719820 0.693120
vn 0.461224 0.547473 0.698244
vn 0.894343 0.311226 0.321386
vn -0.184555 0.977194 0.105032
vn -0.467439 0.878451 0.099123
vn 0.186102 0.976911 0.104935
vn 0.189027 0.976079 0.107419
vn -0.000149 0.994014 0.109255
vn -0.000089 0.994018 0.109213
vn -0.095384 0.995344 0.013868
vn -0.187613 0.978957 -0.080277
vn -0.094087 0.995449 0.015140
vn 0.000155 0.993999 0.109390
vn 0.000094 0.993979 0.109573
vn 0.206793 0.967741 0.143922
vn 0.566313 0.801936 0.190231
s 1
g Rock_05_low1:pPlane928
usemtl ShaderfxShader2SG
f 1/1/1 2/2/2 15/15/3 14/14/4
f 2/2/2 3/3/5 16/16/6 15/15/3
f 3/3/5 4/4/7 17/17/8 16/16/6
f 4/4/7 5/5/9 18/18/10 17/17/8
f 5/5/9 6/6/11 19/19/12 18/18/10
f 6/6/11 7/7/13 20/20/14 19/19/12
f 7/7/13 8/8/15 21/21/16 20/20/14
f 8/8/15 9/9/17 22/22/18 21/21/16
f 9/9/17 10/10/19 23/23/20 22/22/18
f 10/10/19 11/11/21 24/24/22 23/23/20
f 11/11/21 12/12/23 25/25/24 24/24/22
f 12/12/23 13/13/25 26/26/26 25/25/24
f 14/14/4 15/15/3 28/28/27 27/27/28
f 15/15/3 16/16/6 29/29/29 28/28/27
f 16/16/6 17/17/8 30/30/30 29/29/29
f 17/17/8 18/18/10 31/31/31 30/30/30
f 18/18/10 19/19/12 32/32/32 31/31/31
f 19/19/12 20/20/14 33/33/33 32/32/32
f 20/20/14 21/21/16 34/34/34 33/33/33
f 21/21/16 22/22/18 35/35/35 34/34/34
f 22/22/18 23/23/20 36/36/36 35/35/35
f 23/23/20 24/24/22 37/37/37 36/36/36
f 24/24/22 25/25/24 38/38/38 37/37/37
f 25/25/24 26/26/26 39/39/39 38/38/38
f 27/27/28 28/28/27 41/41/40 40/40/41
f 28/28/27 29/29/29 42/42/42 41/41/40
f 29/29/29 30/30/30 43/43/43 42/42/42
f 30/30/30 31/31/31 44/44/44 43/43/43
f 31/31/31 32/32/32 45/45/45 44/44/44
f 32/32/32 33/33/33 46/46/46 45/45/45
f 33/33/33 34/34/34 47/47/47 46/46/46
f 34/34/34 35/35/35 48/48/48 47/47/47
f 35/35/35 36/36/36 49/49/49 48/48/48
f 36/36/36 37/37/37 50/50/50 49/49/49
f 37/37/37 38/38/38 51/51/51 50/50/50
f 38/38/38 39/39/39 52/52/52 51/51/51
f 40/40/41 41/41/40 54/54/53 53/53/54
f 41/41/40 42/42/42 55/55/55 54/54/53
f 42/42/42 43/43/43 56/56/56 55/55/55
f 43/43/43 44/44/44 57/57/57 56/56/56
f 44/44/44 45/45/45 58/58/58 57/57/57
f 45/45/45 46/46/46 59/59/59 58/58/58
f 46/46/46 47/47/47 60/60/60 59/59/59
f 47/47/47 48/48/48 61/61/61 60/60/60
f 48/48/48 49/49/49 62/62/62 61/61/61
f 49/49/49 50/50/50 63/63/63 62/62/62
f 50/50/50 51/51/51 64/64/64 63/63/63
f 51/51/51 52/52/52 65/65/65 64/64/64
f 53/53/54 54/54/53 67/67/66 66/66/67
f 54/54/53 55/55/55 68/68/68 67/67/66
f 55/55/55 56/56/56 69/69/69 68/68/68
f 56/56/56 57/57/57 70/70/70 69/69/69
f 57/57/57 58/58/58 71/71/71 70/70/70
f 58/58/58 59/59/59 72/72/72 71/71/71
f 59/59/59 60/60/60 73/73/73 72/72/72
f 60/60/60 61/61/61 74/74/74 73/73/73
f 61/61/61 62/62/62 75/75/75 74/74/74
f 62/62/62 63/63/63 76/76/76 75/75/75
f 63/63/63 64/64/64 77/77/77 76/76/76
f 64/64/64 65/65/65 78/78/78 77/77/77
f 66/66/67 67/67/66 80/80/79 79/79/80
f 67/67/66 68/68/68 81/81/81 80/80/79
f 68/68/68 69/69/69 82/82/82 81/81/81
f 69/69/69 70/70/70 83/83/83 82/82/82
f 70/70/70 71/71/71 84/84/84 83/83/83
f 71/71/71 72/72/72 85/85/85 84/84/84
f 72/72/72 73/73/73 86/86/86 85/85/85
f 73/73/73 74/74/74 87/87/87 86/86/86
f 74/74/74 75/75/75 88/88/88 87/87/87
f 75/75/75 76/76/76 89/89/89 88/88/88
f 76/76/76 77/77/77 90/90/90 89/89/89
f 77/77/77 78/78/78 91/91/91 90/90/90
f 79/79/80 80/80/79 93/93/92 92/92/93
f 80/80/79 81/81/81 94/94/94 93/93/92
f 81/81/81 82/82/82 95/95/95 94/94/94
f 82/82/82 83/83/83 96/96/96 95/95/95
f 83/83/83 84/84/84 97/97/97 96/96/96
f 84/84/84 85/85/85 98/98/98 97/97/97
f 85/85/85 86/86/86 99/99/99 98/98/98
f 86/86/86 87/87/87 100/100/100 99/99/99
f 87/87/87 88/88/88 101/101/101 100/100/100
f 88/88/88 89/89/89 102/102/102 101/101/101
f 89/89/89 90/90/90 103/103/103 102/102/102
f 90/90/90 91/91/91 104/104/104 103/103/103
f 92/92/93 93/93/92 106/106/105 105/105/106
f 93/93/92 94/94/94 107/107/107 106/106/105
f 94/94/94 95/95/95 108/108/108 107/107/107
f 95/95/95 96/96/96 109/109/109 108/108/108
f 96/96/96 97/97/97 110/110/110 109/109/109
f 97/97/97 98/98/98 111/111/111 110/110/110
f 98/98/98 99/99/99 112/112/112 111/111/111
f 99/99/99 100/100/100 113/113/113 112/112/112
f 100/100/100 101/101/101 114/114/114 113/113/113
f 101/101/101 102/102/102 115/115/115 114/114/114
f 102/102/102 103/103/103 116/116/116 115/115/115
f 103/103/103 104/104/104 117/117/117 116/116/116
f 105/105/106 106/106/105 119/119/118 118/118/119
f 106/106/105 107/107/107 120/120/120 119/119/118
f 107/107/107 108/108/108 121/121/121 120/120/120
f 108/108/108 109/109/109 122/122/122 121/121/121
f 109/109/109 110/110/110 123/123/123 122/122/122
f 110/110/110 111/111/111 124/124/124 123/123/123
f 111/111/111 112/112/112 125/125/125 124/124/124
f 112/112/112 113/113/113 126/126/126 125/125/125
f 113/113/113 114/114/114 127/127/127 126/126/126
f 114/114/114 115/115/115 128/128/128 127/127/127
f 115/115/115 116/116/116 129/129/129 128/128/128
f 116/116/116 117/117/117 130/130/130 129/129/129
f 118/118/119 119/119/118 132/132/131 131/131/132
f 119/119/118 120/120/120 133/133/133 132/132/131
f 120/120/120 121/121/121 134/134/134 133/133/133
f 121/121/121 122/122/122 135/135/135 134/134/134
f 122/122/122 123/123/123 136/136/136 135/135/135
f 123/123/123 124/124/124 137/137/137 136/136/136
f 124/124/124 125/125/125 138/138/138 137/137/137
f 125/125/125 126/126/126 139/139/139 138/138/138
f 126/126/126 127/127/127 140/140/140 139/139/139
f 127/127/127 128/128/128 141/141/141 140/140/140
f 128/128/128 129/129/129 142/142/142 141/141/141
f 129/129/129 130/130/130 143/143/143 142/142/142
f 131/131/132 132/132/131 145/145/144 144/144/145
f 132/132/131 133/133/133 146/146/146 145/145/144
f 133/133/133 134/134/134 147/147/147 146/146/146
f 134/134/134 135/135/135 148/148/148 147/147/147
f 135/135/135 136/136/136 149/149/149 148/148/148
f 136/136/136 137/137/137 150/150/150 149/149/149
f 137/137/137 138/138/138 151/151/151 150/150/150
f 138/138/138 139/139/139 152/152/152 151/151/151
f 139/139/139 140/140/140 153/153/153 152/152/152
f 140/140/140 141/141/141 154/154/154 153/153/153
f 141/141/141 142/142/142 155/155/155 154/154/154
f 142/142/142 143/143/143 156/156/156 155/155/155
f 144/144/145 145/145/144 158/158/157 157/157/158
f 145/145/144 146/146/146 159/159/159 158/158/157
f 146/146/146 147/147/147 160/160/160 159/159/159
f 147/147/147 148/148/148 161/161/161 160/160/160
f 148/148/148 149/149/149 162/162/162 161/161/161
f 149/149/149 150/150/150 163/163/163 162/162/162
f 150/150/150 151/151/151 164/164/164 163/163/163
f 151/151/151 152/152/152 165/165/165 164/164/164
f 152/152/152 153/153/153 166/166/166 165/165/165
f 153/153/153 154/154/154 167/167/167 166/166/166
f 154/154/154 155/155/155 168/168/168 167/167/167
f 155/155/155 156/156/156 169/169/169 168/168/168
