# This file uses centimeters as units for non-parametric coordinates.

mtllib Wall_04.mtl
g default
v -4.010638 -0.185984 -2.348157
v -3.620096 -0.169161 -1.674046
v -3.087158 -0.097092 -0.942898
v -2.756807 -0.386821 -0.704210
v -1.837871 -0.386821 -0.703321
v -0.918935 -0.314671 -0.702296
v 0.000000 -0.314671 -0.701944
v 0.918936 -0.458890 -0.702296
v 1.284724 -0.458890 -0.703321
v 1.837078 -0.458890 -0.934188
v 2.095699 -0.458890 -1.616450
v 2.441896 -0.458890 -2.506341
v 2.363507 -0.237246 -2.936490
v -4.103950 0.110842 -2.238045
v -4.025460 -0.137764 -1.017182
v -3.644160 0.151966 -0.285610
v -2.756807 -0.065695 0.159773
v -1.837871 -0.065695 0.161665
v -0.918935 0.006455 0.162880
v 0.000000 0.006455 0.163300
v 0.918936 -0.137764 0.162880
v 1.837871 -0.137764 0.161665
v 2.329574 -0.137764 -0.332841
v 2.658361 -0.137764 -1.265429
v 2.754911 -0.137764 -2.034147
v 2.614211 0.238808 -2.772064
v -4.103950 0.781172 -2.238045
v -4.177097 0.781172 -1.016758
v -3.801249 1.047151 -0.136973
v -2.774619 0.829491 0.375107
v -1.849746 0.829491 0.377361
v -0.924873 0.901641 0.378852
v -0.000000 0.901641 0.379378
v 0.924874 0.757422 0.378852
v 1.849746 0.757422 0.377361
v 2.519404 0.757422 -0.229642
v 2.851132 0.757422 -1.167402
v 3.162328 0.781172 -2.033843
v 2.614211 0.781172 -2.772064
v -4.349575 1.700107 -2.238045
v -4.424293 1.700107 -1.014906
v -4.048688 1.682295 -0.134833
v -3.020245 2.044093 0.378341
v -2.095371 1.754364 0.381063
v -1.170498 1.826514 0.382956
v -0.245625 1.826514 0.383649
v 0.679248 1.682295 0.382956
v 1.604121 1.682295 0.381063
v 2.276484 1.682295 -0.227868
v 2.607853 1.682295 -1.165863
v 2.918734 1.700107 -2.032511
v 2.368586 1.700107 -2.772064
v -4.186415 2.619043 -2.237367
v -4.261781 2.619043 -1.013462
v -3.886411 2.896898 -0.133113
v -2.856509 2.679237 0.381063
v -1.931636 2.679237 0.384382
v -1.006763 2.751387 0.386912
v -0.081890 2.751387 0.387921
v 0.842983 2.607168 0.386912
v 1.767856 2.607168 0.384382
v 2.442495 2.607168 -0.226375
v 2.773473 2.607168 -1.164627
v 3.084050 2.619043 -2.031474
v 2.533065 2.619043 -2.771577
v -4.187078 3.537979 -2.393374
v -4.262566 3.537979 -1.169326
v -3.887375 3.821771 -0.288765
v -2.856509 3.604110 0.226166
v -1.931636 3.604110 0.230123
v -1.006763 3.676260 0.233633
v -0.081890 3.676260 0.235403
v 0.842983 3.532041 0.233633
v 1.767856 3.532041 0.230123
v 2.444078 3.532041 -0.382127
v 2.774720 3.532041 -1.320599
v 3.085066 3.537979 -2.187597
v 2.533923 3.537979 -2.927803
v -4.105415 4.456914 -2.393106
v -4.180947 4.456914 -1.169005
v -3.805825 4.746644 -0.288364
v -2.774619 4.528983 0.226860
v -1.849746 4.528983 0.231131
v -0.924873 4.601133 0.235403
v -0.000000 4.601133 0.239674
v 0.924874 4.456914 0.235403
v 1.849746 4.456914 0.231131
v 2.526548 4.456914 -0.381747
v 2.857050 4.456914 -1.320310
v 3.167308 4.456914 -2.187367
v 2.616106 4.456914 -2.927611
v -4.105187 5.375850 -2.549837
v -4.180676 5.375850 -1.325788
v -3.805485 5.671517 -0.445227
v -2.774619 5.453857 0.069704
v -1.849746 5.453857 0.073661
v -0.924873 5.526007 0.077171
v -0.000000 5.526007 0.078940
v 0.924874 5.381788 0.077171
v 1.849746 5.381788 0.073661
v 2.525968 5.381788 -0.538589
v 2.856610 5.381788 -1.477060
v 3.166956 5.375850 -2.344059
v 2.615813 5.375850 -3.084265
v -3.900946 6.294786 -2.394157
v -3.976312 6.294786 -1.170252
v -3.600943 6.668459 -0.289902
v -2.571041 6.378730 0.224273
v -1.646168 6.522949 0.227593
v -0.721295 6.450880 0.230123
v 0.203578 6.450880 0.231131
v 1.128452 6.306661 0.230123
v 2.053325 6.306661 0.227593
v 2.727963 6.306661 -0.383165
v 3.058942 6.306661 -1.321416
v 3.369519 6.294786 -2.188263
v 2.818533 6.294786 -2.928367
v -4.103950 7.213721 -2.394835
v -4.178667 7.213721 -1.171696
v -3.803063 7.521263 -0.291623
v -2.774619 7.303603 0.221552
v -1.849746 7.447822 0.224273
v -0.924873 7.375753 0.226166
v -0.000000 7.375753 0.226860
v 0.924874 7.231533 0.226166
v 1.849746 7.231533 0.224273
v 2.522110 7.231533 -0.384658
v 2.853478 7.231533 -1.322653
v 3.164360 7.213721 -2.189301
v 2.614211 7.213721 -2.928854
v -4.103950 8.132657 -2.504229
v -4.177097 8.132657 -1.282942
v -3.801249 8.446137 -0.403157
v -2.774619 8.228476 0.108923
v -1.849746 8.372695 0.111178
v -0.924873 8.300626 0.112669
v -0.000000 8.300626 0.113195
v 0.924874 8.156407 0.112669
v 1.849746 8.156407 0.111178
v 2.519404 8.156407 -0.495825
v 2.851132 8.156407 -1.433585
v 3.162328 8.132657 -2.300026
v 2.614211 8.132657 -3.038247
v -4.103950 8.808323 -2.504229
v -3.901989 9.341322 -1.283365
v -3.644160 9.413391 -0.551794
v -2.756807 9.123662 -0.106410
v -1.837871 9.267881 -0.104518
v -0.918935 9.195812 -0.103304
v -0.000000 9.195812 -0.102884
v 0.918936 9.051593 -0.103304
v 1.837871 9.051593 -0.104518
v 2.329574 9.051593 -0.599025
v 2.658361 9.051593 -1.531613
v 2.826857 9.051593 -2.295471
v 2.614211 8.782280 -3.038248
v -3.685977 9.442131 -2.606532
v -3.304853 9.514200 -1.851140
v -3.053289 9.514200 -1.249049
v -2.756807 9.224470 -1.022783
v -1.837871 9.224470 -1.021894
v -0.918935 9.296621 -1.020868
v -0.000000 9.296620 -1.020517
v 0.918936 9.152402 -1.020868
v 1.523717 9.152401 -1.039529
v 1.839446 9.152401 -1.343356
v 2.047965 9.152401 -1.942708
v 2.293686 9.152401 -2.642069
v 2.315917 9.152401 -3.157417
vt 0.000000 0.000000
vt 0.083333 0.000000
vt 0.166667 0.000000
vt 0.250000 0.000000
vt 0.333333 0.000000
vt 0.416667 0.000000
vt 0.500000 0.000000
vt 0.583333 0.000000
vt 0.666667 0.000000
vt 0.750000 0.000000
vt 0.833333 0.000000
vt 0.916667 0.000000
vt 1.000000 0.000000
vt 0.000000 0.083333
vt 0.083333 0.083333
vt 0.166667 0.083333
vt 0.250000 0.083333
vt 0.333333 0.083333
vt 0.416667 0.083333
vt 0.500000 0.083333
vt 0.583333 0.083333
vt 0.666667 0.083333
vt 0.750000 0.083333
vt 0.833333 0.083333
vt 0.916667 0.083333
vt 1.000000 0.083333
vt 0.000000 0.166667
vt 0.083333 0.166667
vt 0.166667 0.166667
vt 0.250000 0.166667
vt 0.333333 0.166667
vt 0.416667 0.166667
vt 0.500000 0.166667
vt 0.583333 0.166667
vt 0.666667 0.166667
vt 0.750000 0.166667
vt 0.833333 0.166667
vt 0.916667 0.166667
vt 1.000000 0.166667
vt 0.000000 0.250000
vt 0.083333 0.250000
vt 0.166667 0.250000
vt 0.250000 0.250000
vt 0.333333 0.250000
vt 0.416667 0.250000
vt 0.500000 0.250000
vt 0.583333 0.250000
vt 0.666667 0.250000
vt 0.750000 0.250000
vt 0.833333 0.250000
vt 0.916667 0.250000
vt 1.000000 0.250000
vt 0.000000 0.333333
vt 0.083333 0.333333
vt 0.166667 0.333333
vt 0.250000 0.333333
vt 0.333333 0.333333
vt 0.416667 0.333333
vt 0.500000 0.333333
vt 0.583333 0.333333
vt 0.666667 0.333333
vt 0.750000 0.333333
vt 0.833333 0.333333
vt 0.916667 0.333333
vt 1.000000 0.333333
vt 0.000000 0.416667
vt 0.083333 0.416667
vt 0.166667 0.416667
vt 0.250000 0.416667
vt 0.333333 0.416667
vt 0.416667 0.416667
vt 0.500000 0.416667
vt 0.583333 0.416667
vt 0.666667 0.416667
vt 0.750000 0.416667
vt 0.833333 0.416667
vt 0.916667 0.416667
vt 1.000000 0.416667
vt 0.000000 0.500000
vt 0.083333 0.500000
vt 0.166667 0.500000
vt 0.250000 0.500000
vt 0.333333 0.500000
vt 0.416667 0.500000
vt 0.500000 0.500000
vt 0.583333 0.500000
vt 0.666667 0.500000
vt 0.750000 0.500000
vt 0.833333 0.500000
vt 0.916667 0.500000
vt 1.000000 0.500000
vt 0.000000 0.583333
vt 0.083333 0.583333
vt 0.166667 0.583333
vt 0.250000 0.583333
vt 0.333333 0.583333
vt 0.416667 0.583333
vt 0.500000 0.583333
vt 0.583333 0.583333
vt 0.666667 0.583333
vt 0.750000 0.583333
vt 0.833333 0.583333
vt 0.916667 0.583333
vt 1.000000 0.583333
vt 0.000000 0.666667
vt 0.083333 0.666667
vt 0.166667 0.666667
vt 0.250000 0.666667
vt 0.333333 0.666667
vt 0.416667 0.666667
vt 0.500000 0.666667
vt 0.583333 0.666667
vt 0.666667 0.666667
vt 0.750000 0.666667
vt 0.833333 0.666667
vt 0.916667 0.666667
vt 1.000000 0.666667
vt 0.000000 0.750000
vt 0.083333 0.750000
vt 0.166667 0.750000
vt 0.250000 0.750000
vt 0.333333 0.750000
vt 0.416667 0.750000
vt 0.500000 0.750000
vt 0.583333 0.750000
vt 0.666667 0.750000
vt 0.750000 0.750000
vt 0.833333 0.750000
vt 0.916667 0.750000
vt 1.000000 0.750000
vt 0.000000 0.833333
vt 0.083333 0.833333
vt 0.166667 0.833333
vt 0.250000 0.833333
vt 0.333333 0.833333
vt 0.416667 0.833333
vt 0.500000 0.833333
vt 0.583333 0.833333
vt 0.666667 0.833333
vt 0.750000 0.833333
vt 0.833333 0.833333
vt 0.916667 0.833333
vt 1.000000 0.833333
vt 0.000000 0.916667
vt 0.083333 0.916667
vt 0.166667 0.916667
vt 0.250000 0.916667
vt 0.333333 0.916667
vt 0.416667 0.916667
vt 0.500000 0.916667
vt 0.583333 0.916667
vt 0.666667 0.916667
vt 0.750000 0.916667
vt 0.833333 0.916667
vt 0.916667 0.916667
vt 1.000000 0.916667
vt 0.000000 1.000000
vt 0.083333 1.000000
vt 0.166667 1.000000
vt 0.250000 1.000000
vt 0.333333 1.000000
vt 0.416667 1.000000
vt 0.500000 1.000000
vt 0.583333 1.000000
vt 0.666667 1.000000
vt 0.750000 1.000000
vt 0.833333 1.000000
vt 0.916667 1.000000
vt 1.000000 1.000000
vn -0.522437 -0.852310 0.025060
vn -0.260667 -0.956448 0.131380
vn -0.750138 -0.607506 0.261209
vn -0.944127 -0.329579 0.001548
vn -0.214528 -0.955861 0.200768
vn -0.611698 -0.502110 0.611319
vn -0.219243 -0.937694 0.269560
vn -0.249214 -0.615399 0.747781
vn 0.035970 -0.936846 0.347887
vn 0.025119 -0.669702 0.742205
vn 0.036823 -0.936865 0.347748
vn 0.024960 -0.656783 0.753666
vn -0.074598 -0.934897 0.346991
vn -0.050737 -0.649854 0.758363
vn -0.084624 -0.934166 0.346660
vn -0.056897 -0.643750 0.763118
vn 0.078553 -0.944074 0.320239
vn 0.295763 -0.561789 0.772605
vn 0.312278 -0.926478 0.210048
vn 0.691893 -0.564761 0.449811
vn 0.458268 -0.877432 0.141788
vn 0.796319 -0.553683 0.243539
vn 0.780786 -0.604987 -0.156090
vn 0.846072 -0.532981 -0.009655
vn 0.874140 -0.345782 -0.341049
vn 0.863537 -0.272224 -0.424498
vn -0.961582 -0.209180 0.177776
vn -0.982241 -0.184294 -0.035175
vn -0.646365 -0.197486 0.737029
vn -0.236281 -0.144307 0.960909
vn 0.002580 -0.119033 0.992887
vn 0.003382 -0.116584 0.993175
vn -0.008590 -0.115790 0.993237
vn -0.009097 -0.126184 0.991965
vn 0.370892 -0.058148 0.926854
vn 0.852635 0.006610 0.522465
vn 0.949142 -0.010856 0.314662
vn 0.994727 0.003769 -0.102486
vn 0.835355 0.031608 -0.548801
vn -0.989352 -0.042993 0.139047
vn -0.997113 -0.045565 -0.060735
vn -0.726760 -0.046676 0.685304
vn -0.288921 -0.003967 0.957345
vn -0.002744 -0.003867 0.999989
vn -0.001363 -0.004257 0.999990
vn -0.000401 -0.004503 0.999990
vn 0.000961 -0.004316 0.999990
vn 0.314534 0.008300 0.949210
vn 0.828386 0.033873 0.559133
vn 0.941169 0.040271 0.335527
vn 0.987090 0.043240 -0.154221
vn 0.802009 0.032098 -0.596449
vn -0.982462 0.100476 0.157079
vn -0.995110 0.077535 -0.061186
vn -0.695816 0.115851 0.708815
vn -0.236126 0.099453 0.966620
vn -0.006361 0.082094 0.996604
vn -0.005323 0.082963 0.996538
vn 0.006889 0.083694 0.996468
vn 0.007618 0.075764 0.997097
vn 0.368904 0.040571 0.928582
vn 0.836539 -0.029393 0.547119
vn 0.940925 -0.057225 0.333745
vn 0.988536 -0.094393 -0.117846
vn 0.796197 -0.121793 -0.592653
vn -0.991152 0.051632 0.122274
vn -0.997240 0.041602 -0.061488
vn -0.717983 0.086219 0.690701
vn -0.252857 0.096140 0.962715
vn -0.007314 0.084827 0.996369
vn -0.006129 0.079735 0.996797
vn 0.005600 0.076414 0.997060
vn 0.009884 0.085053 0.996327
vn 0.355837 0.062623 0.932448
vn 0.842485 0.006648 0.538678
vn 0.942198 -0.014461 0.334745
vn 0.982882 -0.062004 -0.173491
vn 0.799101 -0.086222 -0.594982
vn -0.987644 0.058450 0.145408
vn -0.997434 0.036606 -0.061530
vn -0.688526 0.094639 0.719010
vn -0.238503 0.087398 0.967201
vn -0.007447 0.082529 0.996561
vn -0.007171 0.086644 0.996214
vn 0.007291 0.088219 0.996074
vn 0.009622 0.079600 0.996780
vn 0.360859 0.061227 0.930608
vn 0.834756 0.009955 0.550530
vn 0.942383 -0.013298 0.334271
vn 0.991410 -0.051704 -0.120138
vn 0.799059 -0.086623 -0.594981
vn -0.988916 0.105237 0.104743
vn -0.991922 0.111136 -0.061158
vn -0.733125 0.080556 0.675306
vn -0.268683 0.038619 0.962454
vn -0.003856 0.006296 0.999973
vn -0.006206 -0.000781 0.999981
vn -0.000253 -0.004401 0.999990
vn 0.003703 0.010944 0.999933
vn 0.350465 -0.037121 0.935840
vn 0.841426 -0.094029 0.532128
vn 0.937110 -0.102698 0.333583
vn 0.974205 -0.108629 -0.197798
vn 0.798918 -0.088812 -0.594847
vn -0.988253 0.002404 0.152808
vn -0.997965 0.017326 -0.061361
vn -0.667310 -0.083772 0.740054
vn -0.223716 -0.079025 0.971446
vn -0.000720 -0.072245 0.997387
vn -0.001880 -0.081132 0.996702
vn -0.006305 -0.076014 0.997087
vn -0.003886 -0.084461 0.996419
vn 0.394446 -0.070653 0.916199
vn 0.842483 -0.040673 0.537186
vn 0.942033 -0.025926 0.334518
vn 0.993777 0.005786 -0.111235
vn 0.801297 0.046544 -0.596454
vn -0.980683 -0.108241 0.162926
vn -0.992176 -0.109250 -0.060422
vn -0.708488 -0.013612 0.705592
vn -0.266405 0.018618 0.963682
vn -0.005300 0.066480 0.997774
vn 0.000855 0.061938 0.998080
vn 0.005342 0.066799 0.997752
vn 0.005991 0.061246 0.998105
vn 0.329543 0.093091 0.939540
vn 0.822881 0.127300 0.553771
vn 0.935119 0.124849 0.331611
vn 0.985098 0.107547 -0.134222
vn 0.801630 0.044885 -0.596133
vn -0.986052 0.088269 0.141106
vn -0.997140 0.073484 -0.017674
vn -0.715980 0.165644 0.678184
vn -0.243808 0.163786 0.955893
vn -0.009361 0.181865 0.983279
vn 0.005749 0.176576 0.984270
vn 0.014328 0.180842 0.983408
vn 0.014569 0.175256 0.984415
vn 0.343572 0.170454 0.923528
vn 0.841859 0.141518 0.520813
vn 0.936156 0.149257 0.318331
vn 0.985841 0.106005 -0.129924
vn 0.836540 0.047376 -0.545855
vn -0.838667 0.530360 0.123916
vn -0.935753 0.352656 0.000490
vn -0.541719 0.602011 0.586620
vn -0.162319 0.614414 0.772106
vn -0.031499 0.790958 0.611059
vn 0.005227 0.755744 0.654846
vn 0.059431 0.761688 0.645212
vn 0.061462 0.716721 0.694647
vn 0.279723 0.624445 0.729262
vn 0.682545 0.595866 0.423174
vn 0.736542 0.633256 0.237681
vn 0.802595 0.595393 -0.036714
vn 0.819870 0.374948 -0.432696
vn -0.510980 0.859256 -0.024049
vn -0.639941 0.767044 -0.046034
vn 0.037164 0.991694 0.123135
vn 0.124773 0.982884 0.135541
vn -0.039310 0.998738 0.031251
vn -0.000064 0.997513 0.070487
vn 0.077346 0.991042 0.108877
vn 0.084867 0.990496 0.108240
vn 0.035462 0.994716 0.096350
vn 0.114203 0.991728 0.058600
vn 0.140282 0.989143 0.043796
vn 0.375169 0.920660 -0.107862
vn 0.580338 0.773917 -0.253496
s 1
g pPlane96
usemtl ShaderfxShader2SG
f 1/1/1 2/2/2 15/15/3 14/14/4
f 2/2/2 3/3/5 16/16/6 15/15/3
f 3/3/5 4/4/7 17/17/8 16/16/6
f 4/4/7 5/5/9 18/18/10 17/17/8
f 5/5/9 6/6/11 19/19/12 18/18/10
f 6/6/11 7/7/13 20/20/14 19/19/12
f 7/7/13 8/8/15 21/21/16 20/20/14
f 8/8/15 9/9/17 22/22/18 21/21/16
f 9/9/17 10/10/19 23/23/20 22/22/18
f 10/10/19 11/11/21 24/24/22 23/23/20
f 11/11/21 12/12/23 25/25/24 24/24/22
f 12/12/23 13/13/25 26/26/26 25/25/24
f 14/14/4 15/15/3 28/28/27 27/27/28
f 15/15/3 16/16/6 29/29/29 28/28/27
f 16/16/6 17/17/8 30/30/30 29/29/29
f 17/17/8 18/18/10 31/31/31 30/30/30
f 18/18/10 19/19/12 32/32/32 31/31/31
f 19/19/12 20/20/14 33/33/33 32/32/32
f 20/20/14 21/21/16 34/34/34 33/33/33
f 21/21/16 22/22/18 35/35/35 34/34/34
f 22/22/18 23/23/20 36/36/36 35/35/35
f 23/23/20 24/24/22 37/37/37 36/36/36
f 24/24/22 25/25/24 38/38/38 37/37/37
f 25/25/24 26/26/26 39/39/39 38/38/38
f 27/27/28 28/28/27 41/41/40 40/40/41
f 28/28/27 29/29/29 42/42/42 41/41/40
f 29/29/29 30/30/30 43/43/43 42/42/42
f 30/30/30 31/31/31 44/44/44 43/43/43
f 31/31/31 32/32/32 45/45/45 44/44/44
f 32/32/32 33/33/33 46/46/46 45/45/45
f 33/33/33 34/34/34 47/47/47 46/46/46
f 34/34/34 35/35/35 48/48/48 47/47/47
f 35/35/35 36/36/36 49/49/49 48/48/48
f 36/36/36 37/37/37 50/50/50 49/49/49
f 37/37/37 38/38/38 51/51/51 50/50/50
f 38/38/38 39/39/39 52/52/52 51/51/51
f 40/40/41 41/41/40 54/54/53 53/53/54
f 41/41/40 42/42/42 55/55/55 54/54/53
f 42/42/42 43/43/43 56/56/56 55/55/55
f 43/43/43 44/44/44 57/57/57 56/56/56
f 44/44/44 45/45/45 58/58/58 57/57/57
f 45/45/45 46/46/46 59/59/59 58/58/58
f 46/46/46 47/47/47 60/60/60 59/59/59
f 47/47/47 48/48/48 61/61/61 60/60/60
f 48/48/48 49/49/49 62/62/62 61/61/61
f 49/49/49 50/50/50 63/63/63 62/62/62
f 50/50/50 51/51/51 64/64/64 63/63/63
f 51/51/51 52/52/52 65/65/65 64/64/64
f 53/53/54 54/54/53 67/67/66 66/66/67
f 54/54/53 55/55/55 68/68/68 67/67/66
f 55/55/55 56/56/56 69/69/69 68/68/68
f 56/56/56 57/57/57 70/70/70 69/69/69
f 57/57/57 58/58/58 71/71/71 70/70/70
f 58/58/58 59/59/59 72/72/72 71/71/71
f 59/59/59 60/60/60 73/73/73 72/72/72
f 60/60/60 61/61/61 74/74/74 73/73/73
f 61/61/61 62/62/62 75/75/75 74/74/74
f 62/62/62 63/63/63 76/76/76 75/75/75
f 63/63/63 64/64/64 77/77/77 76/76/76
f 64/64/64 65/65/65 78/78/78 77/77/77
f 66/66/67 67/67/66 80/80/79 79/79/80
f 67/67/66 68/68/68 81/81/81 80/80/79
f 68/68/68 69/69/69 82/82/82 81/81/81
f 69/69/69 70/70/70 83/83/83 82/82/82
f 70/70/70 71/71/71 84/84/84 83/83/83
f 71/71/71 72/72/72 85/85/85 84/84/84
f 72/72/72 73/73/73 86/86/86 85/85/85
f 73/73/73 74/74/74 87/87/87 86/86/86
f 74/74/74 75/75/75 88/88/88 87/87/87
f 75/75/75 76/76/76 89/89/89 88/88/88
f 76/76/76 77/77/77 90/90/90 89/89/89
f 77/77/77 78/78/78 91/91/91 90/90/90
f 79/79/80 80/80/79 93/93/92 92/92/93
f 80/80/79 81/81/81 94/94/94 93/93/92
f 81/81/81 82/82/82 95/95/95 94/94/94
f 82/82/82 83/83/83 96/96/96 95/95/95
f 83/83/83 84/84/84 97/97/97 96/96/96
f 84/84/84 85/85/85 98/98/98 97/97/97
f 85/85/85 86/86/86 99/99/99 98/98/98
f 86/86/86 87/87/87 100/100/100 99/99/99
f 87/87/87 88/88/88 101/101/101 100/100/100
f 88/88/88 89/89/89 102/102/102 101/101/101
f 89/89/89 90/90/90 103/103/103 102/102/102
f 90/90/90 91/91/91 104/104/104 103/103/103
f 92/92/93 93/93/92 106/106/105 105/105/106
f 93/93/92 94/94/94 107/107/107 106/106/105
f 94/94/94 95/95/95 108/108/108 107/107/107
f 95/95/95 96/96/96 109/109/109 108/108/108
f 96/96/96 97/97/97 110/110/110 109/109/109
f 97/97/97 98/98/98 111/111/111 110/110/110
f 98/98/98 99/99/99 112/112/112 111/111/111
f 99/99/99 100/100/100 113/113/113 112/112/112
f 100/100/100 101/101/101 114/114/114 113/113/113
f 101/101/101 102/102/102 115/115/115 114/114/114
f 102/102/102 103/103/103 116/116/116 115/115/115
f 103/103/103 104/104/104 117/117/117 116/116/116
f 105/105/106 106/106/105 119/119/118 118/118/119
f 106/106/105 107/107/107 120/120/120 119/119/118
f 107/107/107 108/108/108 121/121/121 120/120/120
f 108/108/108 109/109/109 122/122/122 121/121/121
f 109/109/109 110/110/110 123/123/123 122/122/122
f 110/110/110 111/111/111 124/124/124 123/123/123
f 111/111/111 112/112/112 125/125/125 124/124/124
f 112/112/112 113/113/113 126/126/126 125/125/125
f 113/113/113 114/114/114 127/127/127 126/126/126
f 114/114/114 115/115/115 128/128/128 127/127/127
f 115/115/115 116/116/116 129/129/129 128/128/128
f 116/116/116 117/117/117 130/130/130 129/129/129
f 118/118/119 119/119/118 132/132/131 131/131/132
f 119/119/118 120/120/120 133/133/133 132/132/131
f 120/120/120 121/121/121 134/134/134 133/133/133
f 121/121/121 122/122/122 135/135/135 134/134/134
f 122/122/122 123/123/123 136/136/136 135/135/135
f 123/123/123 124/124/124 137/137/137 136/136/136
f 124/124/124 125/125/125 138/138/138 137/137/137
f 125/125/125 126/126/126 139/139/139 138/138/138
f 126/126/126 127/127/127 140/140/140 139/139/139
f 127/127/127 128/128/128 141/141/141 140/140/140
f 128/128/128 129/129/129 142/142/142 141/141/141
f 129/129/129 130/130/130 143/143/143 142/142/142
f 131/131/132 132/132/131 145/145/144 144/144/145
f 132/132/131 133/133/133 146/146/146 145/145/144
f 133/133/133 134/134/134 147/147/147 146/146/146
f 134/134/134 135/135/135 148/148/148 147/147/147
f 135/135/135 136/136/136 149/149/149 148/148/148
f 136/136/136 137/137/137 150/150/150 149/149/149
f 137/137/137 138/138/138 151/151/151 150/150/150
f 138/138/138 139/139/139 152/152/152 151/151/151
f 139/139/139 140/140/140 153/153/153 152/152/152
f 140/140/140 141/141/141 154/154/154 153/153/153
f 141/141/141 142/142/142 155/155/155 154/154/154
f 142/142/142 143/143/143 156/156/156 155/155/155
f 144/144/145 145/145/144 158/158/157 157/157/158
f 145/145/144 146/146/146 159/159/159 158/158/157
f 146/146/146 147/147/147 160/160/160 159/159/159
f 147/147/147 148/148/148 161/161/161 160/160/160
f 148/148/148 149/149/149 162/162/162 161/161/161
f 149/149/149 150/150/150 163/163/163 162/162/162
f 150/150/150 151/151/151 164/164/164 163/163/163
f 151/151/151 152/152/152 165/165/165 164/164/164
f 152/152/152 153/153/153 166/166/166 165/165/165
f 153/153/153 154/154/154 167/167/167 166/166/166
f 154/154/154 155/155/155 168/168/168 167/167/167
f 155/155/155 156/156/156 169/169/169 168/168/168
