# This file uses centimeters as units for non-parametric coordinates.

mtllib Wall_02.mtl
g default
v -3.934732 -0.459528 0.751040
v -3.740436 -0.404139 1.147166
v -2.961445 -0.533753 1.454042
v -2.756807 -0.291075 1.650674
v -1.837871 -0.290385 1.651233
v -0.918935 -0.289588 1.651879
v 0.000000 -0.289315 1.652100
v 0.918936 -0.289588 1.651879
v 1.837872 -0.290385 1.651233
v 2.756807 -0.291075 1.650674
v 3.213518 -0.673291 1.340980
v 3.914181 -1.135251 0.966672
v 3.960608 -1.333511 0.520761
v -4.011294 -0.177601 0.597442
v -4.197161 0.365114 1.357153
v -3.418464 0.744217 1.664325
v -2.756807 0.582373 1.945085
v -1.837871 0.583842 1.946276
v -0.918935 0.584786 1.947040
v 0.000000 0.585112 1.947305
v 0.918936 0.584786 1.947040
v 1.837872 0.583842 1.946276
v 2.756807 0.582373 1.945085
v 3.770961 0.039270 1.505031
v 4.471265 -0.423019 1.130456
v 4.154594 -0.856199 0.294797
v -4.011294 0.244401 0.076620
v -4.197456 0.943990 0.643468
v -3.552623 1.439566 1.075582
v -2.697761 1.313237 1.385118
v -1.772888 1.314989 1.386538
v -0.848015 1.316148 1.387477
v 0.076858 1.316556 1.387807
v 1.001732 1.316148 1.387477
v 1.926604 1.314989 1.386538
v 2.851477 1.313237 1.385118
v 3.928151 0.718232 0.903009
v 4.471624 0.155819 0.416742
v 4.154594 -0.514758 -0.126600
v -4.011294 0.790254 -1.124028
v -4.121886 1.421907 -0.530382
v -3.477253 2.202896 -0.008296
v -2.697761 1.862955 0.449200
v -1.772888 1.863894 0.451754
v -0.848015 1.864547 0.453531
v 0.076858 1.864786 0.454182
v 1.001732 1.864547 0.453531
v 1.926604 1.863894 0.451754
v 2.851477 1.929599 0.503711
v 4.006824 1.579010 -0.178364
v 4.550054 1.357683 -0.973399
v 4.231452 1.283151 -1.967947
v -4.011765 2.427355 -1.830106
v -4.199748 2.427355 -0.926786
v -3.555307 2.923831 -0.269078
v -2.774619 2.415480 0.224273
v -1.849746 2.415480 0.227593
v -0.924873 2.415480 0.230123
v -0.000000 2.415480 0.231131
v 0.924874 2.415480 0.230123
v 1.849746 2.415480 0.227593
v 2.774619 2.415480 0.224273
v 3.931425 2.415480 -0.543632
v 4.474420 2.427355 -1.287297
v 4.155169 2.427355 -2.152987
v -4.244847 3.346290 -1.829237
v -4.200392 3.346290 -0.925756
v -3.556098 3.848704 -0.267814
v -2.774619 3.340353 0.226166
v -1.849746 3.340353 0.230123
v -0.924873 3.340353 0.233633
v -0.000000 3.340353 0.235403
v 0.924874 3.340353 0.233633
v 1.849746 3.340353 0.230123
v 2.774619 3.340353 0.226166
v 3.932390 3.340353 -0.542495
v 4.475206 3.346290 -1.286371
v 3.923296 3.346291 -2.152205
v -4.245033 4.265226 -1.828939
v -4.433152 4.265226 -0.925400
v -3.788914 4.773577 -0.267369
v -3.007156 4.265226 0.226860
v -2.082283 4.265226 0.231131
v -1.157410 4.265226 0.061972
v -0.232537 4.265226 0.066243
v 0.692337 4.265226 0.061972
v 1.617210 4.265226 0.057700
v 2.542082 4.265226 0.053429
v 3.700193 4.265226 -0.715525
v 4.242940 4.265226 -1.459482
v 3.923523 4.265226 -2.325368
v -4.012310 5.184162 -2.002667
v -4.200392 5.184162 -1.099187
v -3.556098 5.698450 -0.441245
v -2.774619 5.190099 0.052736
v -1.849746 5.190100 0.056692
v -0.924873 5.190099 0.060202
v -0.000000 5.190100 0.061972
v 0.924874 5.190099 0.060202
v 1.849746 5.190100 0.056692
v 2.774619 5.190099 0.226166
v 3.932390 5.190100 -0.542495
v 4.475206 5.184162 -1.286372
v 4.155833 5.184162 -2.152205
v -4.011765 6.103097 -1.830106
v -4.199748 6.103097 -0.926786
v -3.555307 6.623322 -0.269078
v -2.774619 6.114972 0.224273
v -1.849746 6.114972 0.227593
v -0.924873 6.114973 0.230123
v -0.000000 6.114972 0.231131
v 0.924874 6.114973 0.230123
v 1.849746 6.114972 0.227593
v 2.774619 6.114972 0.224273
v 3.931425 6.114972 -0.543632
v 4.474420 6.103097 -1.287297
v 4.155169 6.103097 -2.152987
v -3.933806 7.022033 -1.830860
v -4.121256 7.022032 -0.928389
v -3.476624 7.548195 -0.270990
v -2.697131 7.039845 0.221552
v -1.772258 7.039845 0.224273
v -0.847385 7.039845 0.226166
v 0.077488 7.039845 0.109303
v 1.002362 7.039845 0.108610
v 1.927235 7.039845 0.106716
v 2.852107 7.039845 0.103995
v 4.007454 7.039845 -0.662908
v 4.550683 7.022033 -1.406296
v 4.232082 7.022033 -2.271221
v -4.011294 7.940969 -1.948416
v -4.197456 7.940969 -1.048005
v -3.552623 8.473069 -0.390925
v -2.774619 7.964718 0.100760
v -1.849746 7.964719 0.103015
v -0.924873 7.964719 0.104505
v -0.000000 7.964719 0.105031
v 0.924874 7.964719 0.104505
v 1.849746 7.964719 0.220572
v 2.774619 7.964718 0.218317
v 3.928151 7.964719 -0.547490
v 4.471624 7.940969 -1.290592
v 4.154594 7.940969 -2.153665
v -4.011294 8.616634 -1.948416
v -4.197161 8.859905 -1.048476
v -3.418464 9.368255 -0.560547
v -2.756807 8.859905 0.002983
v -1.837871 8.859905 0.004875
v -0.918935 8.859904 0.006090
v 0.000000 8.859904 0.006510
v 0.918936 8.859904 0.006090
v 1.837872 8.859905 0.004875
v 2.756807 8.859905 0.002983
v 3.770961 8.859904 -0.696022
v 4.471265 8.859904 -1.291015
v 4.154594 8.590592 -2.153665
v -3.612305 9.469064 -2.109584
v -3.415678 9.469064 -1.735378
v -2.933655 9.469064 -1.217750
v -2.756807 8.960712 -0.913389
v -1.837871 8.960713 -0.912500
v -0.918935 8.960713 -0.911474
v 0.000000 8.960713 -0.911123
v 0.918936 8.960713 -0.911474
v 1.837872 8.960713 -0.912501
v 2.756807 8.960712 -0.913389
v 3.179621 8.960712 -1.392879
v 3.735132 8.960712 -1.864276
v 3.902166 8.960713 -2.352311
vt 0.000000 0.000000
vt 0.083333 0.000000
vt 0.166667 0.000000
vt 0.250000 0.000000
vt 0.333333 0.000000
vt 0.416667 0.000000
vt 0.500000 0.000000
vt 0.583333 0.000000
vt 0.666667 0.000000
vt 0.750000 0.000000
vt 0.833333 0.000000
vt 0.916667 0.000000
vt 1.000000 0.000000
vt 0.000000 0.083333
vt 0.083333 0.083333
vt 0.166667 0.083333
vt 0.250000 0.083333
vt 0.333333 0.083333
vt 0.416667 0.083333
vt 0.500000 0.083333
vt 0.583333 0.083333
vt 0.666667 0.083333
vt 0.750000 0.083333
vt 0.833333 0.083333
vt 0.916667 0.083333
vt 1.000000 0.083333
vt 0.000000 0.166667
vt 0.083333 0.166667
vt 0.166667 0.166667
vt 0.250000 0.166667
vt 0.333333 0.166667
vt 0.416667 0.166667
vt 0.500000 0.166667
vt 0.583333 0.166667
vt 0.666667 0.166667
vt 0.750000 0.166667
vt 0.833333 0.166667
vt 0.916667 0.166667
vt 1.000000 0.166667
vt 0.000000 0.250000
vt 0.083333 0.250000
vt 0.166667 0.250000
vt 0.250000 0.250000
vt 0.333333 0.250000
vt 0.416667 0.250000
vt 0.500000 0.250000
vt 0.583333 0.250000
vt 0.666667 0.250000
vt 0.750000 0.250000
vt 0.833333 0.250000
vt 0.916667 0.250000
vt 1.000000 0.250000
vt 0.000000 0.333333
vt 0.083333 0.333333
vt 0.166667 0.333333
vt 0.250000 0.333333
vt 0.333333 0.333333
vt 0.416667 0.333333
vt 0.500000 0.333333
vt 0.583333 0.333333
vt 0.666667 0.333333
vt 0.750000 0.333333
vt 0.833333 0.333333
vt 0.916667 0.333333
vt 1.000000 0.333333
vt 0.000000 0.416667
vt 0.083333 0.416667
vt 0.166667 0.416667
vt 0.250000 0.416667
vt 0.333333 0.416667
vt 0.416667 0.416667
vt 0.500000 0.416667
vt 0.583333 0.416667
vt 0.666667 0.416667
vt 0.750000 0.416667
vt 0.833333 0.416667
vt 0.916667 0.416667
vt 1.000000 0.416667
vt 0.000000 0.500000
vt 0.083333 0.500000
vt 0.166667 0.500000
vt 0.250000 0.500000
vt 0.333333 0.500000
vt 0.416667 0.500000
vt 0.500000 0.500000
vt 0.583333 0.500000
vt 0.666667 0.500000
vt 0.750000 0.500000
vt 0.833333 0.500000
vt 0.916667 0.500000
vt 1.000000 0.500000
vt 0.000000 0.583333
vt 0.083333 0.583333
vt 0.166667 0.583333
vt 0.250000 0.583333
vt 0.333333 0.583333
vt 0.416667 0.583333
vt 0.500000 0.583333
vt 0.583333 0.583333
vt 0.666667 0.583333
vt 0.750000 0.583333
vt 0.833333 0.583333
vt 0.916667 0.583333
vt 1.000000 0.583333
vt 0.000000 0.666667
vt 0.083333 0.666667
vt 0.166667 0.666667
vt 0.250000 0.666667
vt 0.333333 0.666667
vt 0.416667 0.666667
vt 0.500000 0.666667
vt 0.583333 0.666667
vt 0.666667 0.666667
vt 0.750000 0.666667
vt 0.833333 0.666667
vt 0.916667 0.666667
vt 1.000000 0.666667
vt 0.000000 0.750000
vt 0.083333 0.750000
vt 0.166667 0.750000
vt 0.250000 0.750000
vt 0.333333 0.750000
vt 0.416667 0.750000
vt 0.500000 0.750000
vt 0.583333 0.750000
vt 0.666667 0.750000
vt 0.750000 0.750000
vt 0.833333 0.750000
vt 0.916667 0.750000
vt 1.000000 0.750000
vt 0.000000 0.833333
vt 0.083333 0.833333
vt 0.166667 0.833333
vt 0.250000 0.833333
vt 0.333333 0.833333
vt 0.416667 0.833333
vt 0.500000 0.833333
vt 0.583333 0.833333
vt 0.666667 0.833333
vt 0.750000 0.833333
vt 0.833333 0.833333
vt 0.916667 0.833333
vt 1.000000 0.833333
vt 0.000000 0.916667
vt 0.083333 0.916667
vt 0.166667 0.916667
vt 0.250000 0.916667
vt 0.333333 0.916667
vt 0.416667 0.916667
vt 0.500000 0.916667
vt 0.583333 0.916667
vt 0.666667 0.916667
vt 0.750000 0.916667
vt 0.833333 0.916667
vt 0.916667 0.916667
vt 1.000000 0.916667
vt 0.000000 1.000000
vt 0.083333 1.000000
vt 0.166667 1.000000
vt 0.250000 1.000000
vt 0.333333 1.000000
vt 0.416667 1.000000
vt 0.500000 1.000000
vt 0.583333 1.000000
vt 0.666667 1.000000
vt 0.750000 1.000000
vt 0.833333 1.000000
vt 0.916667 1.000000
vt 1.000000 1.000000
vn -0.860753 -0.449492 0.238873
vn -0.458052 -0.373884 0.806474
vn -0.764263 -0.015395 0.644721
vn -0.967228 -0.253455 -0.015203
vn -0.351125 -0.311008 0.883168
vn -0.423911 0.234739 0.874756
vn -0.230769 -0.313968 0.920961
vn -0.149074 0.156580 0.976350
vn -0.000475 -0.319697 0.947520
vn -0.001303 0.163764 0.986499
vn -0.000285 -0.319827 0.947476
vn -0.000720 0.163472 0.986548
vn 0.000000 -0.319850 0.947468
vn -0.000015 0.163371 0.986565
vn 0.000285 -0.319827 0.947476
vn 0.000692 0.163399 0.986560
vn 0.000475 -0.319697 0.947520
vn 0.001280 0.163627 0.986521
vn 0.142123 -0.338164 0.930294
vn 0.266972 0.222927 0.937566
vn 0.234084 -0.366489 0.900495
vn 0.519160 0.112196 0.847281
vn 0.557731 -0.514248 0.651526
vn 0.797282 -0.114292 0.592688
vn 0.844617 -0.528972 0.082526
vn 0.921526 -0.373445 -0.106440
vn -0.932460 0.301127 0.199601
vn -0.983697 -0.146238 -0.104661
vn -0.463796 0.710390 0.529376
vn -0.048695 0.747574 0.662391
vn -0.001920 0.759743 0.650221
vn -0.001035 0.759601 0.650389
vn 0.000012 0.759528 0.650475
vn 0.001058 0.759554 0.650444
vn -0.010741 0.752448 0.658564
vn 0.342638 0.678896 0.649384
vn 0.659277 0.527399 0.535913
vn 0.993568 0.054638 0.099181
vn 0.928053 -0.292497 -0.230571
vn -0.989518 0.111877 0.091311
vn -0.985325 -0.117160 -0.124130
vn -0.629730 0.487017 0.605190
vn -0.045782 0.746062 0.664301
vn -0.002331 0.725082 0.688659
vn -0.001302 0.725043 0.688702
vn 0.000027 0.725047 0.688700
vn 0.001345 0.725131 0.688610
vn -0.021352 0.725850 0.687521
vn 0.367519 0.656860 0.658380
vn 0.702062 0.469750 0.535204
vn 0.999256 -0.036855 -0.011335
vn 0.946534 -0.151582 -0.284775
vn -0.975100 -0.016756 0.221132
vn -0.986824 -0.109458 -0.119156
vn -0.647287 0.067502 0.759252
vn -0.235262 0.159092 0.958823
vn -0.003325 0.148268 0.988942
vn -0.002132 0.147410 0.989073
vn -0.000029 0.147040 0.989131
vn 0.002086 0.147550 0.989052
vn -0.004263 0.157487 0.987512
vn 0.356985 0.199934 0.912463
vn 0.689399 0.165889 0.705131
vn 0.995409 0.088178 0.037216
vn 0.921138 0.051134 -0.385863
vn -0.918475 -0.104414 0.381446
vn -0.988975 -0.125505 -0.078594
vn -0.623704 -0.104228 0.774680
vn -0.265766 -0.021425 0.963799
vn 0.023144 0.031325 0.999241
vn 0.016741 0.075110 0.997035
vn 0.000251 0.089713 0.995968
vn 0.003083 0.090863 0.995859
vn 0.003956 0.091915 0.995759
vn 0.359376 0.130478 0.924026
vn 0.658932 0.147912 0.737517
vn 0.986073 0.135692 0.096169
vn 0.891330 0.066422 -0.448463
vn -0.942012 0.014776 0.335254
vn -0.987733 0.054407 -0.146369
vn -0.628753 0.142191 0.764495
vn -0.304862 0.051290 0.951015
vn 0.034853 0.093315 0.995026
vn 0.049835 0.093156 0.994404
vn -0.000506 0.093375 0.995631
vn 0.003647 0.093351 0.995627
vn -0.015406 0.078710 0.996778
vn 0.298943 0.027770 0.953867
vn 0.660257 0.000000 0.751040
vn 0.997245 -0.043516 0.060080
vn 0.913962 -0.066477 -0.400319
vn -0.968811 0.164382 0.185428
vn -0.971724 0.121802 -0.202277
vn -0.623811 0.012934 0.781468
vn -0.245788 0.067699 0.966957
vn 0.023071 -0.031235 0.999246
vn 0.016690 -0.075157 0.997032
vn 0.000255 -0.089734 0.995966
vn 0.003084 -0.090874 0.995858
vn -0.046099 -0.088711 0.994990
vn 0.328967 -0.131169 0.935187
vn 0.658932 -0.147912 0.737517
vn 0.977963 -0.134199 0.159935
vn 0.934249 -0.091820 -0.344599
vn -0.951270 -0.008336 0.308247
vn -0.977289 0.059786 -0.203303
vn -0.629614 -0.012505 0.776807
vn -0.308530 -0.089300 0.947014
vn -0.003212 -0.090064 0.995931
vn 0.012966 -0.075720 0.997045
vn 0.016684 -0.043954 0.998894
vn 0.001999 -0.026292 0.999652
vn -0.020224 -0.003668 0.999789
vn 0.319796 0.028308 0.947063
vn 0.658366 0.022959 0.752348
vn 0.986829 -0.028979 0.159148
vn 0.936408 -0.062821 -0.345246
vn -0.955567 0.025639 0.293658
vn -0.979005 -0.016107 -0.203198
vn -0.620167 0.051804 0.782758
vn -0.249140 0.062497 0.966449
vn -0.002515 0.067230 0.997734
vn 0.031873 0.067662 0.997199
vn 0.029976 0.067860 0.997244
vn -0.015228 0.049607 0.998653
vn -0.012476 0.017535 0.999768
vn 0.365356 0.003178 0.930863
vn 0.676149 0.002625 0.736760
vn 0.995234 0.001442 0.097510
vn 0.938408 0.000388 -0.345528
vn -0.956079 0.000669 0.293107
vn -0.977720 -0.055855 -0.202345
vn -0.611080 0.109796 0.783917
vn -0.260446 0.114806 0.958639
vn -0.002061 0.119585 0.992822
vn 0.014101 0.106175 0.994247
vn 0.016966 0.074558 0.997072
vn -0.029936 0.055822 0.997992
vn -0.030219 0.054859 0.998037
vn 0.330197 0.068592 0.941417
vn 0.643151 0.066031 0.762888
vn 0.976382 0.067330 0.205293
vn 0.936403 0.068420 -0.344192
vn -0.863336 0.400021 0.307626
vn -0.948911 0.266721 -0.168604
vn -0.334289 0.743354 0.579376
vn -0.144284 0.568132 0.810190
vn -0.001266 0.712887 0.701278
vn -0.000681 0.713082 0.701081
vn 0.000000 0.713130 0.701032
vn -0.019048 0.722767 0.690830
vn -0.018175 0.741201 0.671037
vn 0.265721 0.640539 0.720487
vn 0.486461 0.641857 0.592770
vn 0.803449 0.547473 0.233970
vn 0.889855 0.311227 -0.333610
vn -0.622352 0.782691 -0.008520
vn -0.802612 0.587130 -0.105321
vn -0.091393 0.981520 0.168122
vn 0.317128 0.925618 0.206544
vn -0.000149 0.994014 0.109253
vn -0.000089 0.994019 0.109212
vn 0.000000 0.994019 0.109205
vn 0.000089 0.994019 0.109212
vn 0.000149 0.994014 0.109253
vn 0.045407 0.993820 0.101294
vn 0.074428 0.993229 0.089203
vn 0.250794 0.967741 -0.024063
vn 0.554880 0.801937 -0.221371
s 1
g pPlane98
usemtl ShaderfxShader2SG
f 1/1/1 2/2/2 15/15/3 14/14/4
f 2/2/2 3/3/5 16/16/6 15/15/3
f 3/3/5 4/4/7 17/17/8 16/16/6
f 4/4/7 5/5/9 18/18/10 17/17/8
f 5/5/9 6/6/11 19/19/12 18/18/10
f 6/6/11 7/7/13 20/20/14 19/19/12
f 7/7/13 8/8/15 21/21/16 20/20/14
f 8/8/15 9/9/17 22/22/18 21/21/16
f 9/9/17 10/10/19 23/23/20 22/22/18
f 10/10/19 11/11/21 24/24/22 23/23/20
f 11/11/21 12/12/23 25/25/24 24/24/22
f 12/12/23 13/13/25 26/26/26 25/25/24
f 14/14/4 15/15/3 28/28/27 27/27/28
f 15/15/3 16/16/6 29/29/29 28/28/27
f 16/16/6 17/17/8 30/30/30 29/29/29
f 17/17/8 18/18/10 31/31/31 30/30/30
f 18/18/10 19/19/12 32/32/32 31/31/31
f 19/19/12 20/20/14 33/33/33 32/32/32
f 20/20/14 21/21/16 34/34/34 33/33/33
f 21/21/16 22/22/18 35/35/35 34/34/34
f 22/22/18 23/23/20 36/36/36 35/35/35
f 23/23/20 24/24/22 37/37/37 36/36/36
f 24/24/22 25/25/24 38/38/38 37/37/37
f 25/25/24 26/26/26 39/39/39 38/38/38
f 27/27/28 28/28/27 41/41/40 40/40/41
f 28/28/27 29/29/29 42/42/42 41/41/40
f 29/29/29 30/30/30 43/43/43 42/42/42
f 30/30/30 31/31/31 44/44/44 43/43/43
f 31/31/31 32/32/32 45/45/45 44/44/44
f 32/32/32 33/33/33 46/46/46 45/45/45
f 33/33/33 34/34/34 47/47/47 46/46/46
f 34/34/34 35/35/35 48/48/48 47/47/47
f 35/35/35 36/36/36 49/49/49 48/48/48
f 36/36/36 37/37/37 50/50/50 49/49/49
f 37/37/37 38/38/38 51/51/51 50/50/50
f 38/38/38 39/39/39 52/52/52 51/51/51
f 40/40/41 41/41/40 54/54/53 53/53/54
f 41/41/40 42/42/42 55/55/55 54/54/53
f 42/42/42 43/43/43 56/56/56 55/55/55
f 43/43/43 44/44/44 57/57/57 56/56/56
f 44/44/44 45/45/45 58/58/58 57/57/57
f 45/45/45 46/46/46 59/59/59 58/58/58
f 46/46/46 47/47/47 60/60/60 59/59/59
f 47/47/47 48/48/48 61/61/61 60/60/60
f 48/48/48 49/49/49 62/62/62 61/61/61
f 49/49/49 50/50/50 63/63/63 62/62/62
f 50/50/50 51/51/51 64/64/64 63/63/63
f 51/51/51 52/52/52 65/65/65 64/64/64
f 53/53/54 54/54/53 67/67/66 66/66/67
f 54/54/53 55/55/55 68/68/68 67/67/66
f 55/55/55 56/56/56 69/69/69 68/68/68
f 56/56/56 57/57/57 70/70/70 69/69/69
f 57/57/57 58/58/58 71/71/71 70/70/70
f 58/58/58 59/59/59 72/72/72 71/71/71
f 59/59/59 60/60/60 73/73/73 72/72/72
f 60/60/60 61/61/61 74/74/74 73/73/73
f 61/61/61 62/62/62 75/75/75 74/74/74
f 62/62/62 63/63/63 76/76/76 75/75/75
f 63/63/63 64/64/64 77/77/77 76/76/76
f 64/64/64 65/65/65 78/78/78 77/77/77
f 66/66/67 67/67/66 80/80/79 79/79/80
f 67/67/66 68/68/68 81/81/81 80/80/79
f 68/68/68 69/69/69 82/82/82 81/81/81
f 69/69/69 70/70/70 83/83/83 82/82/82
f 70/70/70 71/71/71 84/84/84 83/83/83
f 71/71/71 72/72/72 85/85/85 84/84/84
f 72/72/72 73/73/73 86/86/86 85/85/85
f 73/73/73 74/74/74 87/87/87 86/86/86
f 74/74/74 75/75/75 88/88/88 87/87/87
f 75/75/75 76/76/76 89/89/89 88/88/88
f 76/76/76 77/77/77 90/90/90 89/89/89
f 77/77/77 78/78/78 91/91/91 90/90/90
f 79/79/80 80/80/79 93/93/92 92/92/93
f 80/80/79 81/81/81 94/94/94 93/93/92
f 81/81/81 82/82/82 95/95/95 94/94/94
f 82/82/82 83/83/83 96/96/96 95/95/95
f 83/83/83 84/84/84 97/97/97 96/96/96
f 84/84/84 85/85/85 98/98/98 97/97/97
f 85/85/85 86/86/86 99/99/99 98/98/98
f 86/86/86 87/87/87 100/100/100 99/99/99
f 87/87/87 88/88/88 101/101/101 100/100/100
f 88/88/88 89/89/89 102/102/102 101/101/101
f 89/89/89 90/90/90 103/103/103 102/102/102
f 90/90/90 91/91/91 104/104/104 103/103/103
f 92/92/93 93/93/92 106/106/105 105/105/106
f 93/93/92 94/94/94 107/107/107 106/106/105
f 94/94/94 95/95/95 108/108/108 107/107/107
f 95/95/95 96/96/96 109/109/109 108/108/108
f 96/96/96 97/97/97 110/110/110 109/109/109
f 97/97/97 98/98/98 111/111/111 110/110/110
f 98/98/98 99/99/99 112/112/112 111/111/111
f 99/99/99 100/100/100 113/113/113 112/112/112
f 100/100/100 101/101/101 114/114/114 113/113/113
f 101/101/101 102/102/102 115/115/115 114/114/114
f 102/102/102 103/103/103 116/116/116 115/115/115
f 103/103/103 104/104/104 117/117/117 116/116/116
f 105/105/106 106/106/105 119/119/118 118/118/119
f 106/106/105 107/107/107 120/120/120 119/119/118
f 107/107/107 108/108/108 121/121/121 120/120/120
f 108/108/108 109/109/109 122/122/122 121/121/121
f 109/109/109 110/110/110 123/123/123 122/122/122
f 110/110/110 111/111/111 124/124/124 123/123/123
f 111/111/111 112/112/112 125/125/125 124/124/124
f 112/112/112 113/113/113 126/126/126 125/125/125
f 113/113/113 114/114/114 127/127/127 126/126/126
f 114/114/114 115/115/115 128/128/128 127/127/127
f 115/115/115 116/116/116 129/129/129 128/128/128
f 116/116/116 117/117/117 130/130/130 129/129/129
f 118/118/119 119/119/118 132/132/131 131/131/132
f 119/119/118 120/120/120 133/133/133 132/132/131
f 120/120/120 121/121/121 134/134/134 133/133/133
f 121/121/121 122/122/122 135/135/135 134/134/134
f 122/122/122 123/123/123 136/136/136 135/135/135
f 123/123/123 124/124/124 137/137/137 136/136/136
f 124/124/124 125/125/125 138/138/138 137/137/137
f 125/125/125 126/126/126 139/139/139 138/138/138
f 126/126/126 127/127/127 140/140/140 139/139/139
f 127/127/127 128/128/128 141/141/141 140/140/140
f 128/128/128 129/129/129 142/142/142 141/141/141
f 129/129/129 130/130/130 143/143/143 142/142/142
f 131/131/132 132/132/131 145/145/144 144/144/145
f 132/132/131 133/133/133 146/146/146 145/145/144
f 133/133/133 134/134/134 147/147/147 146/146/146
f 134/134/134 135/135/135 148/148/148 147/147/147
f 135/135/135 136/136/136 149/149/149 148/148/148
f 136/136/136 137/137/137 150/150/150 149/149/149
f 137/137/137 138/138/138 151/151/151 150/150/150
f 138/138/138 139/139/139 152/152/152 151/151/151
f 139/139/139 140/140/140 153/153/153 152/152/152
f 140/140/140 141/141/141 154/154/154 153/153/153
f 141/141/141 142/142/142 155/155/155 154/154/154
f 142/142/142 143/143/143 156/156/156 155/155/155
f 144/144/145 145/145/144 158/158/157 157/157/158
f 145/145/144 146/146/146 159/159/159 158/158/157
f 146/146/146 147/147/147 160/160/160 159/159/159
f 147/147/147 148/148/148 161/161/161 160/160/160
f 148/148/148 149/149/149 162/162/162 161/161/161
f 149/149/149 150/150/150 163/163/163 162/162/162
f 150/150/150 151/151/151 164/164/164 163/163/163
f 151/151/151 152/152/152 165/165/165 164/164/164
f 152/152/152 153/153/153 166/166/166 165/165/165
f 153/153/153 154/154/154 167/167/167 166/166/166
f 154/154/154 155/155/155 168/168/168 167/167/167
f 155/155/155 156/156/156 169/169/169 168/168/168
