# This file uses centimeters as units for non-parametric coordinates.

mtllib Wall_06.mtl
g default
v -3.299374 -0.428695 -3.975447
v -3.162005 -0.701602 -3.652358
v -2.485632 -0.775880 -3.030296
v -1.809258 -0.701751 -2.408234
v -1.133486 -0.701602 -1.785517
v -0.457807 -0.701602 -1.162700
v 0.083523 -0.701602 -1.248144
v 0.719179 -0.701602 -1.157717
v 1.500444 -0.701602 -1.641524
v 2.281780 -0.701602 -2.125214
v 3.063585 -0.701602 -2.608148
v 3.845389 -0.701602 -3.091082
v 3.956402 -0.479958 -3.513987
v -3.397078 -0.131869 -3.869213
v -3.744849 -0.380476 -3.018627
v -3.068851 -0.380476 -2.396157
v -2.394121 -0.454753 -1.772307
v -1.719028 -0.380625 -1.148853
v -1.043477 -0.380476 -0.525896
v 0.085002 -0.380476 -0.382901
v 1.173860 -0.380476 -0.421651
v 1.955025 -0.380476 -0.905618
v 2.735835 -0.380476 -1.390162
v 3.516363 -0.380476 -1.875162
v 4.297875 -0.380476 -2.358568
v 4.029804 -0.003903 -3.258913
v -3.481240 0.538460 -3.869213
v -3.829387 0.538460 -3.018219
v -3.316005 0.514710 -2.254018
v -2.637161 0.514710 -1.625871
v -1.957943 0.514561 -0.998130
v -1.278209 0.514561 -0.370951
v 0.001209 0.514710 -0.166823
v 1.208251 0.514710 -0.241028
v 1.994322 0.514710 -0.728351
v 2.779993 0.514710 -1.216323
v 3.565374 0.514710 -1.704765
v 4.214005 0.538460 -2.358095
v 4.029804 0.538460 -3.258913
v -3.481240 1.457396 -3.869213
v -3.831031 1.457396 -3.016431
v -3.317905 1.439583 -2.251953
v -2.639351 1.439583 -1.623490
v -1.960449 1.439434 -0.995406
v -1.280987 1.439434 -0.367930
v 0.001216 1.439583 -0.162552
v 1.210408 1.439583 -0.237537
v 1.996268 1.439583 -0.725202
v 2.781693 1.439583 -1.213571
v 3.566849 1.439583 -1.702378
v 4.215281 1.457396 -2.356030
v 4.029804 1.457396 -3.258913
v -3.606805 2.376331 -3.868559
v -3.957275 2.376331 -3.015039
v -3.444395 2.364456 -2.250293
v -2.766157 2.364456 -1.621487
v -2.087660 2.364307 -0.992962
v -1.408628 2.364307 -0.365019
v -0.123740 2.364456 -0.158281
v 1.087523 2.364456 -0.234171
v 1.873049 2.364456 -0.722377
v 2.658160 2.364456 -1.211256
v 3.443070 2.364456 -1.700459
v 4.091312 2.376331 -2.354420
v 3.905307 2.376331 -3.258157
v -3.607500 3.295267 -3.867804
v -3.958097 3.295267 -3.014145
v -3.445404 3.289330 -2.249196
v -2.767438 3.289330 -1.620094
v -2.089372 3.289180 -0.991100
v -1.411005 3.289180 -0.362435
v -0.123733 3.289330 -0.154009
v 1.089368 3.289330 -0.231184
v 1.874378 3.289330 -0.720225
v 2.659154 3.289330 -1.209645
v 3.443853 3.289330 -1.699191
v 4.091950 3.295267 -2.353387
v 3.905846 3.295267 -3.257284
v -3.482774 4.214203 -3.867545
v -3.833418 4.214203 -3.013836
v -3.320796 4.214203 -2.248809
v -2.642944 4.214203 -1.619583
v -1.965091 4.214053 -0.990358
v -1.287239 4.214053 -0.361132
v 0.001238 4.214203 -0.149738
v 1.215261 4.214203 -0.229679
v 1.999872 4.214203 -0.719367
v 2.784482 4.214203 -1.209055
v 3.569093 4.214203 -1.698744
v 4.217135 4.214203 -2.353029
v 4.030994 4.214203 -3.256986
v -3.607757 5.133139 -3.867804
v -3.958354 5.133139 -3.014145
v -3.445661 5.139076 -2.249196
v -2.767696 5.139076 -1.620094
v -2.089630 5.138927 -0.991100
v -1.411262 5.138927 -0.362435
v -0.123990 5.139076 -0.154009
v 1.089111 5.139076 -0.231184
v 1.874121 5.139076 -0.720225
v 2.658897 5.139076 -1.209645
v 3.443596 5.139076 -1.699191
v 4.091693 5.133139 -2.353387
v 3.905589 5.133139 -3.257284
v -3.481842 6.052074 -3.868559
v -3.832311 6.052074 -3.015039
v -3.319431 6.063949 -2.250293
v -2.641193 6.063949 -1.621487
v -1.962696 6.063800 -0.992962
v -1.283665 6.063800 -0.365019
v 0.001224 6.063949 -0.158281
v 1.212487 6.063949 -0.234171
v 1.998012 6.063949 -0.722377
v 2.783123 6.063949 -1.211256
v 3.568034 6.063949 -1.700459
v 4.216276 6.052074 -2.354420
v 4.030271 6.052074 -3.258157
v -3.354447 6.971009 -3.869213
v -3.704237 6.971009 -3.016431
v -3.191112 6.988822 -2.251953
v -2.512557 6.914544 -1.623490
v -1.833656 6.988673 -0.995406
v -1.154193 6.988822 -0.367930
v 0.128010 6.988822 -0.162552
v 1.337201 6.988822 -0.237537
v 2.123061 6.988822 -0.725202
v 2.908486 6.988822 -1.213571
v 3.693642 6.988822 -1.702378
v 4.342075 6.971009 -2.356030
v 4.156597 6.971009 -3.258913
v -3.481240 7.889946 -3.869213
v -3.829387 7.889946 -3.018219
v -3.285382 7.695263 -2.259813
v -2.606537 7.695263 -1.631666
v -1.957943 7.913546 -0.998130
v -1.278209 7.913546 -0.370951
v 0.001209 7.913695 -0.166823
v 1.208251 7.913695 -0.241028
v 1.994322 7.913695 -0.728351
v 2.779993 7.913695 -1.216323
v 3.565374 7.913695 -1.704765
v 4.214005 7.889946 -2.358095
v 4.029804 7.889946 -3.258913
v -3.450616 8.347178 -3.875008
v -3.798387 8.590448 -3.024423
v -3.122389 8.590448 -2.401952
v -2.447659 8.516170 -1.778102
v -1.803190 8.808732 -1.148853
v -1.127638 8.808881 -0.525896
v -0.130143 9.095114 -0.358114
v 0.958715 9.095114 -0.396864
v 1.855500 8.690266 -0.902711
v 2.603116 8.610604 -1.380973
v 3.383644 8.610604 -1.865973
v 4.165156 8.610604 -2.349379
v 4.029804 8.539569 -3.258913
v -3.028836 8.691257 -3.960264
v -2.904176 8.691257 -3.556343
v -2.503706 8.616979 -3.074651
v -1.857956 8.909541 -2.446795
v -1.182184 8.909689 -1.824078
v -0.637487 9.195923 -1.176474
v -0.131711 9.195922 -1.275746
v 0.476502 9.195923 -1.177501
v 1.257767 9.195922 -1.661308
v 2.170086 8.909690 -2.169785
v 2.903333 8.711412 -2.643530
v 3.523176 8.711412 -3.026418
v 3.809971 8.909690 -3.493123
vt 0.000000 0.000000
vt 0.083333 0.000000
vt 0.166667 0.000000
vt 0.250000 0.000000
vt 0.333333 0.000000
vt 0.416667 0.000000
vt 0.500000 0.000000
vt 0.583333 0.000000
vt 0.666667 0.000000
vt 0.750000 0.000000
vt 0.833333 0.000000
vt 0.916667 0.000000
vt 1.000000 0.000000
vt 0.000000 0.083333
vt 0.083333 0.083333
vt 0.166667 0.083333
vt 0.250000 0.083333
vt 0.333333 0.083333
vt 0.416667 0.083333
vt 0.500000 0.083333
vt 0.583333 0.083333
vt 0.666667 0.083333
vt 0.750000 0.083333
vt 0.833333 0.083333
vt 0.916667 0.083333
vt 1.000000 0.083333
vt 0.000000 0.166667
vt 0.083333 0.166667
vt 0.166667 0.166667
vt 0.250000 0.166667
vt 0.333333 0.166667
vt 0.416667 0.166667
vt 0.500000 0.166667
vt 0.583333 0.166667
vt 0.666667 0.166667
vt 0.750000 0.166667
vt 0.833333 0.166667
vt 0.916667 0.166667
vt 1.000000 0.166667
vt 0.000000 0.250000
vt 0.083333 0.250000
vt 0.166667 0.250000
vt 0.250000 0.250000
vt 0.333333 0.250000
vt 0.416667 0.250000
vt 0.500000 0.250000
vt 0.583333 0.250000
vt 0.666667 0.250000
vt 0.750000 0.250000
vt 0.833333 0.250000
vt 0.916667 0.250000
vt 1.000000 0.250000
vt 0.000000 0.333333
vt 0.083333 0.333333
vt 0.166667 0.333333
vt 0.250000 0.333333
vt 0.333333 0.333333
vt 0.416667 0.333333
vt 0.500000 0.333333
vt 0.583333 0.333333
vt 0.666667 0.333333
vt 0.750000 0.333333
vt 0.833333 0.333333
vt 0.916667 0.333333
vt 1.000000 0.333333
vt 0.000000 0.416667
vt 0.083333 0.416667
vt 0.166667 0.416667
vt 0.250000 0.416667
vt 0.333333 0.416667
vt 0.416667 0.416667
vt 0.500000 0.416667
vt 0.583333 0.416667
vt 0.666667 0.416667
vt 0.750000 0.416667
vt 0.833333 0.416667
vt 0.916667 0.416667
vt 1.000000 0.416667
vt 0.000000 0.500000
vt 0.083333 0.500000
vt 0.166667 0.500000
vt 0.250000 0.500000
vt 0.333333 0.500000
vt 0.416667 0.500000
vt 0.500000 0.500000
vt 0.583333 0.500000
vt 0.666667 0.500000
vt 0.750000 0.500000
vt 0.833333 0.500000
vt 0.916667 0.500000
vt 1.000000 0.500000
vt 0.000000 0.583333
vt 0.083333 0.583333
vt 0.166667 0.583333
vt 0.250000 0.583333
vt 0.333333 0.583333
vt 0.416667 0.583333
vt 0.500000 0.583333
vt 0.583333 0.583333
vt 0.666667 0.583333
vt 0.750000 0.583333
vt 0.833333 0.583333
vt 0.916667 0.583333
vt 1.000000 0.583333
vt 0.000000 0.666667
vt 0.083333 0.666667
vt 0.166667 0.666667
vt 0.250000 0.666667
vt 0.333333 0.666667
vt 0.416667 0.666667
vt 0.500000 0.666667
vt 0.583333 0.666667
vt 0.666667 0.666667
vt 0.750000 0.666667
vt 0.833333 0.666667
vt 0.916667 0.666667
vt 1.000000 0.666667
vt 0.000000 0.750000
vt 0.083333 0.750000
vt 0.166667 0.750000
vt 0.250000 0.750000
vt 0.333333 0.750000
vt 0.416667 0.750000
vt 0.500000 0.750000
vt 0.583333 0.750000
vt 0.666667 0.750000
vt 0.750000 0.750000
vt 0.833333 0.750000
vt 0.916667 0.750000
vt 1.000000 0.750000
vt 0.000000 0.833333
vt 0.083333 0.833333
vt 0.166667 0.833333
vt 0.250000 0.833333
vt 0.333333 0.833333
vt 0.416667 0.833333
vt 0.500000 0.833333
vt 0.583333 0.833333
vt 0.666667 0.833333
vt 0.750000 0.833333
vt 0.833333 0.833333
vt 0.916667 0.833333
vt 1.000000 0.833333
vt 0.000000 0.916667
vt 0.083333 0.916667
vt 0.166667 0.916667
vt 0.250000 0.916667
vt 0.333333 0.916667
vt 0.416667 0.916667
vt 0.500000 0.916667
vt 0.583333 0.916667
vt 0.666667 0.916667
vt 0.750000 0.916667
vt 0.833333 0.916667
vt 0.916667 0.916667
vt 1.000000 0.916667
vt 0.000000 1.000000
vt 0.083333 1.000000
vt 0.166667 1.000000
vt 0.250000 1.000000
vt 0.333333 1.000000
vt 0.416667 1.000000
vt 0.500000 1.000000
vt 0.583333 1.000000
vt 0.666667 1.000000
vt 0.750000 1.000000
vt 0.833333 1.000000
vt 0.916667 1.000000
vt 1.000000 1.000000
vn -0.809679 -0.468572 -0.353355
vn -0.485683 -0.869907 0.085871
vn -0.803341 -0.544871 0.240331
vn -0.897653 -0.216097 -0.384086
vn -0.262225 -0.930184 0.256896
vn -0.548260 -0.647915 0.528788
vn -0.210320 -0.943540 0.255925
vn -0.483953 -0.688506 0.540138
vn -0.209739 -0.943750 0.255626
vn -0.489905 -0.675823 0.550687
vn -0.113638 -0.936349 0.332171
vn -0.311753 -0.586208 0.747777
vn -0.012276 -0.924247 0.381598
vn -0.035420 -0.548773 0.835220
vn 0.076522 -0.936827 0.341320
vn 0.229756 -0.583218 0.779146
vn 0.183350 -0.937453 0.295913
vn 0.401525 -0.647715 0.647490
vn 0.183581 -0.937301 0.296252
vn 0.402101 -0.647172 0.647675
vn 0.183701 -0.937089 0.296847
vn 0.441189 -0.624079 0.644886
vn 0.573733 -0.813677 0.093596
vn 0.766595 -0.503463 0.398568
vn 0.920808 -0.302582 -0.246083
vn 0.967563 -0.075989 -0.240929
vn -0.987011 -0.079591 0.139553
vn -0.922102 -0.046275 -0.384171
vn -0.737533 -0.120162 0.664535
vn -0.671851 -0.146648 0.726024
vn -0.668694 -0.148268 0.728605
vn -0.400100 -0.130944 0.907069
vn -0.053048 -0.108960 0.992630
vn 0.267462 -0.103750 0.957967
vn 0.524869 -0.095573 0.845800
vn 0.525487 -0.095134 0.845466
vn 0.597664 -0.065138 0.799096
vn 0.941584 -0.006058 0.336723
vn 0.976337 0.024582 -0.214854
vn -0.992198 -0.070802 0.102614
vn -0.923452 -0.062268 -0.378627
vn -0.756837 -0.053699 0.651394
vn -0.678499 -0.049101 0.732958
vn -0.677965 -0.049611 0.733418
vn -0.380857 -0.029684 0.924157
vn -0.047547 -0.007085 0.998844
vn 0.280910 0.015193 0.959614
vn 0.527444 0.031871 0.848992
vn 0.528021 0.032456 0.848611
vn 0.625367 0.039387 0.779336
vn 0.957826 0.062620 0.280442
vn 0.977398 0.066574 -0.200652
vn -0.992927 -0.067012 0.098009
vn -0.923169 -0.064272 -0.378984
vn -0.761309 -0.053720 0.646160
vn -0.678936 -0.048383 0.732601
vn -0.678496 -0.049020 0.732966
vn -0.401039 -0.031374 0.915524
vn -0.057038 -0.008210 0.998338
vn 0.262621 0.013244 0.964808
vn 0.527977 0.032421 0.848640
vn 0.528461 0.033131 0.848311
vn 0.619650 0.039987 0.783859
vn 0.954588 0.064377 0.290892
vn 0.977386 0.065432 -0.201087
vn -0.992983 0.065488 0.098467
vn -0.923164 0.063471 -0.379131
vn -0.761311 0.050253 0.646436
vn -0.679409 0.044467 0.732411
vn -0.679195 0.043891 0.732645
vn -0.401877 0.024423 0.915368
vn -0.057215 0.000666 0.998362
vn 0.263497 -0.020556 0.964441
vn 0.528523 -0.037755 0.848079
vn 0.528807 -0.037190 0.847927
vn 0.620136 -0.042924 0.783319
vn 0.954731 -0.066785 0.289877
vn 0.977314 -0.066127 -0.201208
vn -0.994507 -0.000144 0.104675
vn -0.925020 -0.000125 -0.379919
vn -0.756062 -0.000106 0.654500
vn -0.680232 -0.000099 0.732997
vn -0.680111 -0.000090 0.733109
vn -0.373151 -0.000050 0.927771
vn -0.042771 -0.000005 0.999085
vn 0.292456 0.000042 0.956279
vn 0.529220 0.000074 0.848484
vn 0.529352 0.000074 0.848403
vn 0.629956 0.000088 0.776631
vn 0.961908 0.000130 0.273372
vn 0.979453 0.000139 -0.201673
vn -0.995365 0.000391 0.096166
vn -0.925029 0.000331 -0.379896
vn -0.764553 0.001315 0.644560
vn -0.680087 0.001422 0.733130
vn -0.679859 0.001956 0.733341
vn -0.412229 0.003004 0.911075
vn -0.061950 0.003511 0.998073
vn 0.254342 0.003288 0.967109
vn 0.528889 0.002089 0.848688
vn 0.529168 0.001489 0.848516
vn 0.617536 0.000948 0.786542
vn 0.955151 0.000971 0.296116
vn 0.979458 0.000229 -0.201650
vn -0.985730 0.136189 0.098940
vn -0.917671 0.126331 -0.376725
vn -0.756264 0.106156 0.645597
vn -0.676449 0.096632 0.730122
vn -0.676891 0.096451 0.729737
vn -0.390720 0.057213 0.918730
vn -0.052360 0.011188 0.998566
vn 0.271696 -0.033018 0.961817
vn 0.527020 -0.068599 0.847080
vn 0.527483 -0.069327 0.846732
vn 0.620822 -0.082692 0.779578
vn 0.950102 -0.128836 0.284090
vn 0.970829 -0.132645 -0.199739
vn -0.995929 0.007334 0.089838
vn -0.925246 0.000549 -0.379368
vn -0.757230 0.012350 0.653032
vn -0.679858 0.018903 0.733100
vn -0.679505 0.004851 0.733655
vn -0.371122 0.004333 0.928574
vn -0.042719 0.004202 0.999078
vn 0.290812 0.004235 0.956771
vn 0.527722 0.003738 0.849409
vn 0.528306 0.003193 0.849048
vn 0.629387 0.003289 0.777085
vn 0.961686 0.000779 0.274152
vn 0.979572 0.000416 -0.201095
vn -0.986802 -0.008891 0.161684
vn -0.922868 -0.060761 -0.380292
vn -0.737969 0.049736 0.673000
vn -0.691062 0.077851 0.718591
vn -0.695472 0.089726 0.712929
vn -0.409837 0.074357 0.909123
vn -0.055855 0.081482 0.995109
vn 0.269927 0.124709 0.954771
vn 0.530060 0.170052 0.830734
vn 0.522842 0.179732 0.833266
vn 0.593284 0.158255 0.789284
vn 0.940041 0.130054 0.315291
vn 0.977629 0.092383 -0.188961
vn -0.737868 0.634622 0.229797
vn -0.794032 0.483932 -0.367862
vn -0.496527 0.731978 0.466550
vn -0.569363 0.680004 0.461973
vn -0.560525 0.709429 0.427226
vn -0.386417 0.523823 0.759138
vn -0.082050 0.533292 0.841943
vn 0.249252 0.607016 0.754590
vn 0.485353 0.663998 0.568805
vn 0.430146 0.741496 0.514935
vn 0.388478 0.774202 0.499696
vn 0.719861 0.611950 0.327594
vn 0.871984 0.485935 -0.059261
vn -0.172070 0.984208 -0.041546
vn -0.411154 0.878451 -0.243469
vn -0.131981 0.987581 0.085233
vn -0.267808 0.959627 0.085992
vn -0.301959 0.949393 0.086446
vn -0.250088 0.953834 0.166301
vn -0.091378 0.980450 0.174262
vn 0.151602 0.979133 0.135337
vn 0.327830 0.925287 0.190714
vn 0.284377 0.939342 0.191743
vn 0.136755 0.984342 0.111211
vn 0.163033 0.980987 0.105281
vn 0.369961 0.920489 0.125816
s 1
g Rock_05_low1:pPlane102
usemtl ShaderfxShader2SG
f 1/1/1 2/2/2 15/15/3 14/14/4
f 2/2/2 3/3/5 16/16/6 15/15/3
f 3/3/5 4/4/7 17/17/8 16/16/6
f 4/4/7 5/5/9 18/18/10 17/17/8
f 5/5/9 6/6/11 19/19/12 18/18/10
f 6/6/11 7/7/13 20/20/14 19/19/12
f 7/7/13 8/8/15 21/21/16 20/20/14
f 8/8/15 9/9/17 22/22/18 21/21/16
f 9/9/17 10/10/19 23/23/20 22/22/18
f 10/10/19 11/11/21 24/24/22 23/23/20
f 11/11/21 12/12/23 25/25/24 24/24/22
f 12/12/23 13/13/25 26/26/26 25/25/24
f 14/14/4 15/15/3 28/28/27 27/27/28
f 15/15/3 16/16/6 29/29/29 28/28/27
f 16/16/6 17/17/8 30/30/30 29/29/29
f 17/17/8 18/18/10 31/31/31 30/30/30
f 18/18/10 19/19/12 32/32/32 31/31/31
f 19/19/12 20/20/14 33/33/33 32/32/32
f 20/20/14 21/21/16 34/34/34 33/33/33
f 21/21/16 22/22/18 35/35/35 34/34/34
f 22/22/18 23/23/20 36/36/36 35/35/35
f 23/23/20 24/24/22 37/37/37 36/36/36
f 24/24/22 25/25/24 38/38/38 37/37/37
f 25/25/24 26/26/26 39/39/39 38/38/38
f 27/27/28 28/28/27 41/41/40 40/40/41
f 28/28/27 29/29/29 42/42/42 41/41/40
f 29/29/29 30/30/30 43/43/43 42/42/42
f 30/30/30 31/31/31 44/44/44 43/43/43
f 31/31/31 32/32/32 45/45/45 44/44/44
f 32/32/32 33/33/33 46/46/46 45/45/45
f 33/33/33 34/34/34 47/47/47 46/46/46
f 34/34/34 35/35/35 48/48/48 47/47/47
f 35/35/35 36/36/36 49/49/49 48/48/48
f 36/36/36 37/37/37 50/50/50 49/49/49
f 37/37/37 38/38/38 51/51/51 50/50/50
f 38/38/38 39/39/39 52/52/52 51/51/51
f 40/40/41 41/41/40 54/54/53 53/53/54
f 41/41/40 42/42/42 55/55/55 54/54/53
f 42/42/42 43/43/43 56/56/56 55/55/55
f 43/43/43 44/44/44 57/57/57 56/56/56
f 44/44/44 45/45/45 58/58/58 57/57/57
f 45/45/45 46/46/46 59/59/59 58/58/58
f 46/46/46 47/47/47 60/60/60 59/59/59
f 47/47/47 48/48/48 61/61/61 60/60/60
f 48/48/48 49/49/49 62/62/62 61/61/61
f 49/49/49 50/50/50 63/63/63 62/62/62
f 50/50/50 51/51/51 64/64/64 63/63/63
f 51/51/51 52/52/52 65/65/65 64/64/64
f 53/53/54 54/54/53 67/67/66 66/66/67
f 54/54/53 55/55/55 68/68/68 67/67/66
f 55/55/55 56/56/56 69/69/69 68/68/68
f 56/56/56 57/57/57 70/70/70 69/69/69
f 57/57/57 58/58/58 71/71/71 70/70/70
f 58/58/58 59/59/59 72/72/72 71/71/71
f 59/59/59 60/60/60 73/73/73 72/72/72
f 60/60/60 61/61/61 74/74/74 73/73/73
f 61/61/61 62/62/62 75/75/75 74/74/74
f 62/62/62 63/63/63 76/76/76 75/75/75
f 63/63/63 64/64/64 77/77/77 76/76/76
f 64/64/64 65/65/65 78/78/78 77/77/77
f 66/66/67 67/67/66 80/80/79 79/79/80
f 67/67/66 68/68/68 81/81/81 80/80/79
f 68/68/68 69/69/69 82/82/82 81/81/81
f 69/69/69 70/70/70 83/83/83 82/82/82
f 70/70/70 71/71/71 84/84/84 83/83/83
f 71/71/71 72/72/72 85/85/85 84/84/84
f 72/72/72 73/73/73 86/86/86 85/85/85
f 73/73/73 74/74/74 87/87/87 86/86/86
f 74/74/74 75/75/75 88/88/88 87/87/87
f 75/75/75 76/76/76 89/89/89 88/88/88
f 76/76/76 77/77/77 90/90/90 89/89/89
f 77/77/77 78/78/78 91/91/91 90/90/90
f 79/79/80 80/80/79 93/93/92 92/92/93
f 80/80/79 81/81/81 94/94/94 93/93/92
f 81/81/81 82/82/82 95/95/95 94/94/94
f 82/82/82 83/83/83 96/96/96 95/95/95
f 83/83/83 84/84/84 97/97/97 96/96/96
f 84/84/84 85/85/85 98/98/98 97/97/97
f 85/85/85 86/86/86 99/99/99 98/98/98
f 86/86/86 87/87/87 100/100/100 99/99/99
f 87/87/87 88/88/88 101/101/101 100/100/100
f 88/88/88 89/89/89 102/102/102 101/101/101
f 89/89/89 90/90/90 103/103/103 102/102/102
f 90/90/90 91/91/91 104/104/104 103/103/103
f 92/92/93 93/93/92 106/106/105 105/105/106
f 93/93/92 94/94/94 107/107/107 106/106/105
f 94/94/94 95/95/95 108/108/108 107/107/107
f 95/95/95 96/96/96 109/109/109 108/108/108
f 96/96/96 97/97/97 110/110/110 109/109/109
f 97/97/97 98/98/98 111/111/111 110/110/110
f 98/98/98 99/99/99 112/112/112 111/111/111
f 99/99/99 100/100/100 113/113/113 112/112/112
f 100/100/100 101/101/101 114/114/114 113/113/113
f 101/101/101 102/102/102 115/115/115 114/114/114
f 102/102/102 103/103/103 116/116/116 115/115/115
f 103/103/103 104/104/104 117/117/117 116/116/116
f 105/105/106 106/106/105 119/119/118 118/118/119
f 106/106/105 107/107/107 120/120/120 119/119/118
f 107/107/107 108/108/108 121/121/121 120/120/120
f 108/108/108 109/109/109 122/122/122 121/121/121
f 109/109/109 110/110/110 123/123/123 122/122/122
f 110/110/110 111/111/111 124/124/124 123/123/123
f 111/111/111 112/112/112 125/125/125 124/124/124
f 112/112/112 113/113/113 126/126/126 125/125/125
f 113/113/113 114/114/114 127/127/127 126/126/126
f 114/114/114 115/115/115 128/128/128 127/127/127
f 115/115/115 116/116/116 129/129/129 128/128/128
f 116/116/116 117/117/117 130/130/130 129/129/129
f 118/118/119 119/119/118 132/132/131 131/131/132
f 119/119/118 120/120/120 133/133/133 132/132/131
f 120/120/120 121/121/121 134/134/134 133/133/133
f 121/121/121 122/122/122 135/135/135 134/134/134
f 122/122/122 123/123/123 136/136/136 135/135/135
f 123/123/123 124/124/124 137/137/137 136/136/136
f 124/124/124 125/125/125 138/138/138 137/137/137
f 125/125/125 126/126/126 139/139/139 138/138/138
f 126/126/126 127/127/127 140/140/140 139/139/139
f 127/127/127 128/128/128 141/141/141 140/140/140
f 128/128/128 129/129/129 142/142/142 141/141/141
f 129/129/129 130/130/130 143/143/143 142/142/142
f 131/131/132 132/132/131 145/145/144 144/144/145
f 132/132/131 133/133/133 146/146/146 145/145/144
f 133/133/133 134/134/134 147/147/147 146/146/146
f 134/134/134 135/135/135 148/148/148 147/147/147
f 135/135/135 136/136/136 149/149/149 148/148/148
f 136/136/136 137/137/137 150/150/150 149/149/149
f 137/137/137 138/138/138 151/151/151 150/150/150
f 138/138/138 139/139/139 152/152/152 151/151/151
f 139/139/139 140/140/140 153/153/153 152/152/152
f 140/140/140 141/141/141 154/154/154 153/153/153
f 141/141/141 142/142/142 155/155/155 154/154/154
f 142/142/142 143/143/143 156/156/156 155/155/155
f 144/144/145 145/145/144 158/158/157 157/157/158
f 145/145/144 146/146/146 159/159/159 158/158/157
f 146/146/146 147/147/147 160/160/160 159/159/159
f 147/147/147 148/148/148 161/161/161 160/160/160
f 148/148/148 149/149/149 162/162/162 161/161/161
f 149/149/149 150/150/150 163/163/163 162/162/162
f 150/150/150 151/151/151 164/164/164 163/163/163
f 151/151/151 152/152/152 165/165/165 164/164/164
f 152/152/152 153/153/153 166/166/166 165/165/165
f 153/153/153 154/154/154 167/167/167 166/166/166
f 154/154/154 155/155/155 168/168/168 167/167/167
f 155/155/155 156/156/156 169/169/169 168/168/168
